M48
; DRILL file {KiCad 8.0.4} date 2024-08-06T18:42:08+0900
; FORMAT={-:-/ absolute / metric / decimal}
; #@! TF.CreationDate,2024-08-06T18:42:08+09:00
; #@! TF.GenerationSoftware,Kicad,Pcbnew,8.0.4
; #@! TF.FileFunction,Plated,1,2,PTH
FMAT,2
METRIC
; #@! TA.AperFunction,Plated,PTH,ViaDrill
T1C0.300
; #@! TA.AperFunction,Plated,PTH,ComponentDrill
T2C0.800
; #@! TA.AperFunction,Plated,PTH,ComponentDrill
T3C1.000
; #@! TA.AperFunction,Plated,PTH,ComponentDrill
T4C1.020
; #@! TA.AperFunction,Plated,PTH,ComponentDrill
T5C2.000
%
G90
G05
T1
X153.315Y-117.445
T2
X119.265Y-73.875
X119.265Y-76.415
X119.265Y-78.955
X119.265Y-81.495
X119.265Y-84.035
X119.265Y-86.575
X119.265Y-89.115
X119.265Y-91.655
X119.265Y-94.195
X119.265Y-96.735
X126.885Y-73.875
X126.885Y-76.415
X126.885Y-78.955
X126.885Y-81.495
X126.885Y-84.035
X126.885Y-86.575
X126.885Y-89.115
X126.885Y-91.655
X126.885Y-94.195
X126.885Y-96.735
T3
X124.46Y-115.335
X124.46Y-117.875
X124.46Y-120.415
X124.46Y-122.955
X124.46Y-125.495
X124.46Y-128.035
X126.365Y-115.335
X126.365Y-117.875
X126.365Y-120.415
X126.365Y-122.955
X126.365Y-125.495
X126.365Y-128.035
X133.445Y-44.535
X133.445Y-59.035
X133.445Y-72.752
X133.445Y-87.252
X133.445Y-100.968
X133.445Y-115.468
X133.445Y-129.185
X133.445Y-143.685
X135.945Y-59.035
X135.945Y-87.252
X135.945Y-115.468
X135.945Y-143.685
X138.445Y-44.535
X138.445Y-59.035
X138.445Y-72.752
X138.445Y-87.252
X138.445Y-100.968
X138.445Y-115.468
X138.445Y-129.185
X138.445Y-143.685
X147.415Y-77.075
X147.415Y-79.615
X147.415Y-82.155
X147.415Y-84.695
X147.415Y-87.235
X147.415Y-89.775
X147.415Y-92.315
X147.415Y-94.855
X147.415Y-97.395
X147.415Y-99.935
X147.415Y-102.475
X147.415Y-105.015
X147.415Y-107.555
X147.415Y-110.095
X147.415Y-112.635
X147.415Y-115.175
X147.415Y-117.715
X147.415Y-120.255
X147.415Y-122.795
X147.415Y-125.335
X149.955Y-77.075
X149.955Y-79.615
X149.955Y-82.155
X149.955Y-84.695
X149.955Y-87.235
X149.955Y-89.775
X149.955Y-92.315
X149.955Y-94.855
X149.955Y-97.395
X149.955Y-99.935
X149.955Y-102.475
X149.955Y-105.015
X149.955Y-107.555
X149.955Y-110.095
X149.955Y-112.635
X149.955Y-115.175
X149.955Y-117.715
X149.955Y-120.255
X149.955Y-122.795
X149.955Y-125.335
X176.625Y-143.29
X176.625Y-145.195
X179.165Y-143.29
X179.165Y-145.195
X181.705Y-143.29
X181.705Y-145.195
X184.245Y-143.29
X184.245Y-145.195
X186.785Y-143.29
X186.785Y-145.195
X189.325Y-143.29
X189.325Y-145.195
T4
X156.305Y-120.305
X156.305Y-138.085
X156.535Y-126.655
X156.535Y-129.195
X156.535Y-131.735
X158.845Y-120.305
X158.845Y-138.085
X161.385Y-120.305
X161.385Y-138.085
X163.925Y-120.305
X163.925Y-138.085
X166.465Y-120.305
X166.465Y-138.085
X169.005Y-120.305
X169.005Y-138.085
X171.545Y-120.305
X171.545Y-138.085
X174.085Y-120.305
X174.085Y-138.085
X176.625Y-120.305
X176.625Y-138.085
X179.165Y-120.305
X179.165Y-138.085
X181.705Y-120.305
X181.705Y-138.085
X184.245Y-120.305
X184.245Y-138.085
X186.785Y-120.305
X186.785Y-138.085
X189.325Y-120.305
X189.325Y-138.085
X191.865Y-120.305
X191.865Y-138.085
X194.405Y-120.305
X194.405Y-138.085
X196.945Y-120.305
X196.945Y-138.085
X199.485Y-120.305
X199.485Y-138.085
X202.025Y-120.305
X202.025Y-138.085
X204.565Y-120.305
X204.565Y-138.085
T5
G00X130.345Y-52.085
M15
G01X130.345Y-50.985
M16
G05
G00X130.345Y-80.302
M15
G01X130.345Y-79.202
M16
G05
G00X130.345Y-108.518
M15
G01X130.345Y-107.418
M16
G05
G00X130.345Y-136.735
M15
G01X130.345Y-135.635
M16
G05
G00X141.545Y-52.085
M15
G01X141.545Y-50.985
M16
G05
G00X141.545Y-80.302
M15
G01X141.545Y-79.202
M16
G05
G00X141.545Y-108.518
M15
G01X141.545Y-107.418
M16
G05
G00X141.545Y-136.735
M15
G01X141.545Y-135.635
M16
G05
M30
