G04 #@! TF.GenerationSoftware,KiCad,Pcbnew,8.0.4*
G04 #@! TF.CreationDate,2024-08-06T18:41:40+09:00*
G04 #@! TF.ProjectId,Fakedeck-garber,46616b65-6465-4636-9b2d-676172626572,rev?*
G04 #@! TF.SameCoordinates,Original*
G04 #@! TF.FileFunction,Legend,Bot*
G04 #@! TF.FilePolarity,Positive*
%FSLAX46Y46*%
G04 Gerber Fmt 4.6, Leading zero omitted, Abs format (unit mm)*
G04 Created by KiCad (PCBNEW 8.0.4) date 2024-08-06 18:41:40*
%MOMM*%
%LPD*%
G01*
G04 APERTURE LIST*
G04 Aperture macros list*
%AMRoundRect*
0 Rectangle with rounded corners*
0 $1 Rounding radius*
0 $2 $3 $4 $5 $6 $7 $8 $9 X,Y pos of 4 corners*
0 Add a 4 corners polygon primitive as box body*
4,1,4,$2,$3,$4,$5,$6,$7,$8,$9,$2,$3,0*
0 Add four circle primitives for the rounded corners*
1,1,$1+$1,$2,$3*
1,1,$1+$1,$4,$5*
1,1,$1+$1,$6,$7*
1,1,$1+$1,$8,$9*
0 Add four rect primitives between the rounded corners*
20,1,$1+$1,$2,$3,$4,$5,0*
20,1,$1+$1,$4,$5,$6,$7,0*
20,1,$1+$1,$6,$7,$8,$9,0*
20,1,$1+$1,$8,$9,$2,$3,0*%
G04 Aperture macros list end*
%ADD10C,0.150000*%
%ADD11C,0.120000*%
%ADD12RoundRect,0.250000X0.550000X-0.550000X0.550000X0.550000X-0.550000X0.550000X-0.550000X-0.550000X0*%
%ADD13C,1.600000*%
%ADD14O,3.000000X4.100000*%
%ADD15C,3.200000*%
%ADD16O,1.700000X3.644000*%
%ADD17O,1.700000X1.700000*%
%ADD18R,1.700000X1.700000*%
%ADD19O,3.644000X1.700000*%
%ADD20R,1.600000X1.600000*%
%ADD21O,1.600000X1.600000*%
%ADD22O,1.800000X1.800000*%
%ADD23O,1.500000X1.500000*%
%ADD24R,1.700000X3.500000*%
%ADD25R,3.500000X1.700000*%
G04 APERTURE END LIST*
D10*
X164315868Y-141292998D02*
X164342805Y-141212185D01*
X164342805Y-141212185D02*
X164423618Y-141131373D01*
X164423618Y-141131373D02*
X164531367Y-141077498D01*
X164531367Y-141077498D02*
X164639117Y-141077498D01*
X164639117Y-141077498D02*
X164719929Y-141104436D01*
X164719929Y-141104436D02*
X164854616Y-141185248D01*
X164854616Y-141185248D02*
X164935428Y-141266060D01*
X164935428Y-141266060D02*
X165016241Y-141400747D01*
X165016241Y-141400747D02*
X165043178Y-141481560D01*
X165043178Y-141481560D02*
X165043178Y-141589309D01*
X165043178Y-141589309D02*
X164989303Y-141697059D01*
X164989303Y-141697059D02*
X164935428Y-141750934D01*
X164935428Y-141750934D02*
X164827679Y-141804808D01*
X164827679Y-141804808D02*
X164773804Y-141804808D01*
X164773804Y-141804808D02*
X164585242Y-141616247D01*
X164585242Y-141616247D02*
X164692992Y-141508497D01*
X164585242Y-142101120D02*
X164019557Y-141535434D01*
X164019557Y-141535434D02*
X163804057Y-141750934D01*
X163804057Y-141750934D02*
X163777120Y-141831746D01*
X163777120Y-141831746D02*
X163777120Y-141885621D01*
X163777120Y-141885621D02*
X163804057Y-141966433D01*
X163804057Y-141966433D02*
X163884870Y-142047245D01*
X163884870Y-142047245D02*
X163965682Y-142074182D01*
X163965682Y-142074182D02*
X164019557Y-142074182D01*
X164019557Y-142074182D02*
X164100369Y-142047245D01*
X164100369Y-142047245D02*
X164315868Y-141831746D01*
X163723245Y-142963117D02*
X164046494Y-142639868D01*
X163884870Y-142801492D02*
X163319184Y-142235807D01*
X163319184Y-142235807D02*
X163453871Y-142262744D01*
X163453871Y-142262744D02*
X163561621Y-142262744D01*
X163561621Y-142262744D02*
X163642433Y-142235807D01*
X162968998Y-142585993D02*
X162618812Y-142936179D01*
X162618812Y-142936179D02*
X163022873Y-142963117D01*
X163022873Y-142963117D02*
X162942060Y-143043929D01*
X162942060Y-143043929D02*
X162915123Y-143124741D01*
X162915123Y-143124741D02*
X162915123Y-143178616D01*
X162915123Y-143178616D02*
X162942060Y-143259428D01*
X162942060Y-143259428D02*
X163076747Y-143394115D01*
X163076747Y-143394115D02*
X163157560Y-143421053D01*
X163157560Y-143421053D02*
X163211434Y-143421053D01*
X163211434Y-143421053D02*
X163292247Y-143394115D01*
X163292247Y-143394115D02*
X163453871Y-143232491D01*
X163453871Y-143232491D02*
X163480808Y-143151679D01*
X163480808Y-143151679D02*
X163480808Y-143097804D01*
X184806428Y-140955390D02*
X184882618Y-140917295D01*
X184882618Y-140917295D02*
X184996904Y-140917295D01*
X184996904Y-140917295D02*
X185111190Y-140955390D01*
X185111190Y-140955390D02*
X185187380Y-141031580D01*
X185187380Y-141031580D02*
X185225475Y-141107771D01*
X185225475Y-141107771D02*
X185263571Y-141260152D01*
X185263571Y-141260152D02*
X185263571Y-141374438D01*
X185263571Y-141374438D02*
X185225475Y-141526819D01*
X185225475Y-141526819D02*
X185187380Y-141603009D01*
X185187380Y-141603009D02*
X185111190Y-141679200D01*
X185111190Y-141679200D02*
X184996904Y-141717295D01*
X184996904Y-141717295D02*
X184920713Y-141717295D01*
X184920713Y-141717295D02*
X184806428Y-141679200D01*
X184806428Y-141679200D02*
X184768332Y-141641104D01*
X184768332Y-141641104D02*
X184768332Y-141374438D01*
X184768332Y-141374438D02*
X184920713Y-141374438D01*
X184425475Y-141717295D02*
X184425475Y-140917295D01*
X184425475Y-140917295D02*
X184120713Y-140917295D01*
X184120713Y-140917295D02*
X184044523Y-140955390D01*
X184044523Y-140955390D02*
X184006428Y-140993485D01*
X184006428Y-140993485D02*
X183968332Y-141069676D01*
X183968332Y-141069676D02*
X183968332Y-141183961D01*
X183968332Y-141183961D02*
X184006428Y-141260152D01*
X184006428Y-141260152D02*
X184044523Y-141298247D01*
X184044523Y-141298247D02*
X184120713Y-141336342D01*
X184120713Y-141336342D02*
X184425475Y-141336342D01*
X183282618Y-140917295D02*
X183434999Y-140917295D01*
X183434999Y-140917295D02*
X183511190Y-140955390D01*
X183511190Y-140955390D02*
X183549285Y-140993485D01*
X183549285Y-140993485D02*
X183625475Y-141107771D01*
X183625475Y-141107771D02*
X183663571Y-141260152D01*
X183663571Y-141260152D02*
X183663571Y-141564914D01*
X183663571Y-141564914D02*
X183625475Y-141641104D01*
X183625475Y-141641104D02*
X183587380Y-141679200D01*
X183587380Y-141679200D02*
X183511190Y-141717295D01*
X183511190Y-141717295D02*
X183358809Y-141717295D01*
X183358809Y-141717295D02*
X183282618Y-141679200D01*
X183282618Y-141679200D02*
X183244523Y-141641104D01*
X183244523Y-141641104D02*
X183206428Y-141564914D01*
X183206428Y-141564914D02*
X183206428Y-141374438D01*
X183206428Y-141374438D02*
X183244523Y-141298247D01*
X183244523Y-141298247D02*
X183282618Y-141260152D01*
X183282618Y-141260152D02*
X183358809Y-141222057D01*
X183358809Y-141222057D02*
X183511190Y-141222057D01*
X183511190Y-141222057D02*
X183587380Y-141260152D01*
X183587380Y-141260152D02*
X183625475Y-141298247D01*
X183625475Y-141298247D02*
X183663571Y-141374438D01*
X194725868Y-115285123D02*
X194375682Y-115635309D01*
X194375682Y-115635309D02*
X194779743Y-115662247D01*
X194779743Y-115662247D02*
X194698931Y-115743059D01*
X194698931Y-115743059D02*
X194671993Y-115823871D01*
X194671993Y-115823871D02*
X194671993Y-115877746D01*
X194671993Y-115877746D02*
X194698931Y-115958558D01*
X194698931Y-115958558D02*
X194833618Y-116093245D01*
X194833618Y-116093245D02*
X194914430Y-116120182D01*
X194914430Y-116120182D02*
X194968305Y-116120182D01*
X194968305Y-116120182D02*
X195049117Y-116093245D01*
X195049117Y-116093245D02*
X195210741Y-115931621D01*
X195210741Y-115931621D02*
X195237679Y-115850808D01*
X195237679Y-115850808D02*
X195237679Y-115796934D01*
X194214057Y-115796934D02*
X194591181Y-116551181D01*
X194591181Y-116551181D02*
X193836934Y-116174057D01*
X193702247Y-116308744D02*
X193352061Y-116658930D01*
X193352061Y-116658930D02*
X193756122Y-116685868D01*
X193756122Y-116685868D02*
X193675309Y-116766680D01*
X193675309Y-116766680D02*
X193648372Y-116847492D01*
X193648372Y-116847492D02*
X193648372Y-116901367D01*
X193648372Y-116901367D02*
X193675309Y-116982179D01*
X193675309Y-116982179D02*
X193809996Y-117116866D01*
X193809996Y-117116866D02*
X193890809Y-117143804D01*
X193890809Y-117143804D02*
X193944683Y-117143804D01*
X193944683Y-117143804D02*
X194025496Y-117116866D01*
X194025496Y-117116866D02*
X194187120Y-116955242D01*
X194187120Y-116955242D02*
X194214057Y-116874430D01*
X194214057Y-116874430D02*
X194214057Y-116820555D01*
X182306428Y-140995390D02*
X182382618Y-140957295D01*
X182382618Y-140957295D02*
X182496904Y-140957295D01*
X182496904Y-140957295D02*
X182611190Y-140995390D01*
X182611190Y-140995390D02*
X182687380Y-141071580D01*
X182687380Y-141071580D02*
X182725475Y-141147771D01*
X182725475Y-141147771D02*
X182763571Y-141300152D01*
X182763571Y-141300152D02*
X182763571Y-141414438D01*
X182763571Y-141414438D02*
X182725475Y-141566819D01*
X182725475Y-141566819D02*
X182687380Y-141643009D01*
X182687380Y-141643009D02*
X182611190Y-141719200D01*
X182611190Y-141719200D02*
X182496904Y-141757295D01*
X182496904Y-141757295D02*
X182420713Y-141757295D01*
X182420713Y-141757295D02*
X182306428Y-141719200D01*
X182306428Y-141719200D02*
X182268332Y-141681104D01*
X182268332Y-141681104D02*
X182268332Y-141414438D01*
X182268332Y-141414438D02*
X182420713Y-141414438D01*
X181925475Y-141757295D02*
X181925475Y-140957295D01*
X181925475Y-140957295D02*
X181620713Y-140957295D01*
X181620713Y-140957295D02*
X181544523Y-140995390D01*
X181544523Y-140995390D02*
X181506428Y-141033485D01*
X181506428Y-141033485D02*
X181468332Y-141109676D01*
X181468332Y-141109676D02*
X181468332Y-141223961D01*
X181468332Y-141223961D02*
X181506428Y-141300152D01*
X181506428Y-141300152D02*
X181544523Y-141338247D01*
X181544523Y-141338247D02*
X181620713Y-141376342D01*
X181620713Y-141376342D02*
X181925475Y-141376342D01*
X181201666Y-140957295D02*
X180668332Y-140957295D01*
X180668332Y-140957295D02*
X181011190Y-141757295D01*
X205442585Y-114548406D02*
X205819709Y-115302653D01*
X205819709Y-115302653D02*
X205065462Y-114925529D01*
X204957712Y-115572027D02*
X204903838Y-115679776D01*
X204903838Y-115679776D02*
X204903838Y-115733651D01*
X204903838Y-115733651D02*
X204930775Y-115814463D01*
X204930775Y-115814463D02*
X205011587Y-115895276D01*
X205011587Y-115895276D02*
X205092399Y-115922213D01*
X205092399Y-115922213D02*
X205146274Y-115922213D01*
X205146274Y-115922213D02*
X205227086Y-115895276D01*
X205227086Y-115895276D02*
X205442586Y-115679776D01*
X205442586Y-115679776D02*
X204876900Y-115114091D01*
X204876900Y-115114091D02*
X204688338Y-115302653D01*
X204688338Y-115302653D02*
X204661401Y-115383465D01*
X204661401Y-115383465D02*
X204661401Y-115437340D01*
X204661401Y-115437340D02*
X204688338Y-115518152D01*
X204688338Y-115518152D02*
X204742213Y-115572027D01*
X204742213Y-115572027D02*
X204823025Y-115598964D01*
X204823025Y-115598964D02*
X204876900Y-115598964D01*
X204876900Y-115598964D02*
X204957712Y-115572027D01*
X204957712Y-115572027D02*
X205146274Y-115383465D01*
X204311215Y-115679776D02*
X204769151Y-116137712D01*
X204769151Y-116137712D02*
X204796088Y-116218524D01*
X204796088Y-116218524D02*
X204796088Y-116272399D01*
X204796088Y-116272399D02*
X204769151Y-116353211D01*
X204769151Y-116353211D02*
X204661401Y-116460961D01*
X204661401Y-116460961D02*
X204580589Y-116487898D01*
X204580589Y-116487898D02*
X204526714Y-116487898D01*
X204526714Y-116487898D02*
X204445902Y-116460961D01*
X204445902Y-116460961D02*
X203987966Y-116003025D01*
X204284277Y-116784210D02*
X204230403Y-116891959D01*
X204230403Y-116891959D02*
X204095716Y-117026646D01*
X204095716Y-117026646D02*
X204014903Y-117053584D01*
X204014903Y-117053584D02*
X203961029Y-117053584D01*
X203961029Y-117053584D02*
X203880216Y-117026646D01*
X203880216Y-117026646D02*
X203826342Y-116972771D01*
X203826342Y-116972771D02*
X203799404Y-116891959D01*
X203799404Y-116891959D02*
X203799404Y-116838084D01*
X203799404Y-116838084D02*
X203826342Y-116757272D01*
X203826342Y-116757272D02*
X203907154Y-116622585D01*
X203907154Y-116622585D02*
X203934091Y-116541773D01*
X203934091Y-116541773D02*
X203934091Y-116487898D01*
X203934091Y-116487898D02*
X203907154Y-116407086D01*
X203907154Y-116407086D02*
X203853279Y-116353211D01*
X203853279Y-116353211D02*
X203772467Y-116326274D01*
X203772467Y-116326274D02*
X203718592Y-116326274D01*
X203718592Y-116326274D02*
X203637780Y-116353211D01*
X203637780Y-116353211D02*
X203503093Y-116487898D01*
X203503093Y-116487898D02*
X203449218Y-116595648D01*
X197066494Y-141408372D02*
X197093431Y-141327560D01*
X197093431Y-141327560D02*
X197174243Y-141246748D01*
X197174243Y-141246748D02*
X197281993Y-141192873D01*
X197281993Y-141192873D02*
X197389742Y-141192873D01*
X197389742Y-141192873D02*
X197470555Y-141219810D01*
X197470555Y-141219810D02*
X197605242Y-141300623D01*
X197605242Y-141300623D02*
X197686054Y-141381435D01*
X197686054Y-141381435D02*
X197766866Y-141516122D01*
X197766866Y-141516122D02*
X197793803Y-141596934D01*
X197793803Y-141596934D02*
X197793803Y-141704684D01*
X197793803Y-141704684D02*
X197739929Y-141812433D01*
X197739929Y-141812433D02*
X197686054Y-141866308D01*
X197686054Y-141866308D02*
X197578304Y-141920183D01*
X197578304Y-141920183D02*
X197524429Y-141920183D01*
X197524429Y-141920183D02*
X197335868Y-141731621D01*
X197335868Y-141731621D02*
X197443617Y-141623871D01*
X197335868Y-142216494D02*
X196770182Y-141650809D01*
X196770182Y-141650809D02*
X196554683Y-141866308D01*
X196554683Y-141866308D02*
X196527746Y-141947120D01*
X196527746Y-141947120D02*
X196527746Y-142000995D01*
X196527746Y-142000995D02*
X196554683Y-142081807D01*
X196554683Y-142081807D02*
X196635495Y-142162619D01*
X196635495Y-142162619D02*
X196716307Y-142189557D01*
X196716307Y-142189557D02*
X196770182Y-142189557D01*
X196770182Y-142189557D02*
X196850994Y-142162619D01*
X196850994Y-142162619D02*
X197066494Y-141947120D01*
X196285309Y-142243432D02*
X196231434Y-142243432D01*
X196231434Y-142243432D02*
X196150622Y-142270369D01*
X196150622Y-142270369D02*
X196015935Y-142405056D01*
X196015935Y-142405056D02*
X195988998Y-142485868D01*
X195988998Y-142485868D02*
X195988998Y-142539743D01*
X195988998Y-142539743D02*
X196015935Y-142620555D01*
X196015935Y-142620555D02*
X196069810Y-142674430D01*
X196069810Y-142674430D02*
X196177559Y-142728305D01*
X196177559Y-142728305D02*
X196824057Y-142728305D01*
X196824057Y-142728305D02*
X196473871Y-143078491D01*
X189969868Y-115184998D02*
X189996805Y-115104185D01*
X189996805Y-115104185D02*
X190077618Y-115023373D01*
X190077618Y-115023373D02*
X190185367Y-114969498D01*
X190185367Y-114969498D02*
X190293117Y-114969498D01*
X190293117Y-114969498D02*
X190373929Y-114996436D01*
X190373929Y-114996436D02*
X190508616Y-115077248D01*
X190508616Y-115077248D02*
X190589428Y-115158060D01*
X190589428Y-115158060D02*
X190670241Y-115292747D01*
X190670241Y-115292747D02*
X190697178Y-115373560D01*
X190697178Y-115373560D02*
X190697178Y-115481309D01*
X190697178Y-115481309D02*
X190643303Y-115589059D01*
X190643303Y-115589059D02*
X190589428Y-115642934D01*
X190589428Y-115642934D02*
X190481679Y-115696808D01*
X190481679Y-115696808D02*
X190427804Y-115696808D01*
X190427804Y-115696808D02*
X190239242Y-115508247D01*
X190239242Y-115508247D02*
X190346992Y-115400497D01*
X190239242Y-115993120D02*
X189673557Y-115427434D01*
X189673557Y-115427434D02*
X189458057Y-115642934D01*
X189458057Y-115642934D02*
X189431120Y-115723746D01*
X189431120Y-115723746D02*
X189431120Y-115777621D01*
X189431120Y-115777621D02*
X189458057Y-115858433D01*
X189458057Y-115858433D02*
X189538870Y-115939245D01*
X189538870Y-115939245D02*
X189619682Y-115966182D01*
X189619682Y-115966182D02*
X189673557Y-115966182D01*
X189673557Y-115966182D02*
X189754369Y-115939245D01*
X189754369Y-115939245D02*
X189969868Y-115723746D01*
X189188683Y-116020057D02*
X189134809Y-116020057D01*
X189134809Y-116020057D02*
X189053996Y-116046995D01*
X189053996Y-116046995D02*
X188919309Y-116181682D01*
X188919309Y-116181682D02*
X188892372Y-116262494D01*
X188892372Y-116262494D02*
X188892372Y-116316369D01*
X188892372Y-116316369D02*
X188919309Y-116397181D01*
X188919309Y-116397181D02*
X188973184Y-116451056D01*
X188973184Y-116451056D02*
X189080934Y-116504930D01*
X189080934Y-116504930D02*
X189727431Y-116504930D01*
X189727431Y-116504930D02*
X189377245Y-116855117D01*
X188730747Y-116855117D02*
X188757685Y-116774305D01*
X188757685Y-116774305D02*
X188757685Y-116720430D01*
X188757685Y-116720430D02*
X188730747Y-116639618D01*
X188730747Y-116639618D02*
X188703810Y-116612680D01*
X188703810Y-116612680D02*
X188622998Y-116585743D01*
X188622998Y-116585743D02*
X188569123Y-116585743D01*
X188569123Y-116585743D02*
X188488311Y-116612680D01*
X188488311Y-116612680D02*
X188380561Y-116720430D01*
X188380561Y-116720430D02*
X188353624Y-116801242D01*
X188353624Y-116801242D02*
X188353624Y-116855117D01*
X188353624Y-116855117D02*
X188380561Y-116935929D01*
X188380561Y-116935929D02*
X188407499Y-116962866D01*
X188407499Y-116962866D02*
X188488311Y-116989804D01*
X188488311Y-116989804D02*
X188542186Y-116989804D01*
X188542186Y-116989804D02*
X188622998Y-116962866D01*
X188622998Y-116962866D02*
X188730747Y-116855117D01*
X188730747Y-116855117D02*
X188811560Y-116828179D01*
X188811560Y-116828179D02*
X188865434Y-116828179D01*
X188865434Y-116828179D02*
X188946247Y-116855117D01*
X188946247Y-116855117D02*
X189053996Y-116962866D01*
X189053996Y-116962866D02*
X189080934Y-117043679D01*
X189080934Y-117043679D02*
X189080934Y-117097553D01*
X189080934Y-117097553D02*
X189053996Y-117178366D01*
X189053996Y-117178366D02*
X188946247Y-117286115D01*
X188946247Y-117286115D02*
X188865434Y-117313053D01*
X188865434Y-117313053D02*
X188811560Y-117313053D01*
X188811560Y-117313053D02*
X188730747Y-117286115D01*
X188730747Y-117286115D02*
X188622998Y-117178366D01*
X188622998Y-117178366D02*
X188596060Y-117097553D01*
X188596060Y-117097553D02*
X188596060Y-117043679D01*
X188596060Y-117043679D02*
X188622998Y-116962866D01*
X194969049Y-113350064D02*
X194699675Y-113619438D01*
X195184549Y-113457813D02*
X194430301Y-113080690D01*
X194430301Y-113080690D02*
X194807425Y-113834937D01*
X194618863Y-114023499D02*
X194053178Y-113457813D01*
X194053178Y-113457813D02*
X193918491Y-113592500D01*
X193918491Y-113592500D02*
X193864616Y-113700250D01*
X193864616Y-113700250D02*
X193864616Y-113807999D01*
X193864616Y-113807999D02*
X193891553Y-113888812D01*
X193891553Y-113888812D02*
X193972366Y-114023499D01*
X193972366Y-114023499D02*
X194053178Y-114104311D01*
X194053178Y-114104311D02*
X194187865Y-114185123D01*
X194187865Y-114185123D02*
X194268677Y-114212060D01*
X194268677Y-114212060D02*
X194376427Y-114212060D01*
X194376427Y-114212060D02*
X194484176Y-114158186D01*
X194484176Y-114158186D02*
X194618863Y-114023499D01*
X193676054Y-114858558D02*
X193729929Y-114858558D01*
X193729929Y-114858558D02*
X193837679Y-114804683D01*
X193837679Y-114804683D02*
X193891553Y-114750808D01*
X193891553Y-114750808D02*
X193945428Y-114643059D01*
X193945428Y-114643059D02*
X193945428Y-114535309D01*
X193945428Y-114535309D02*
X193918491Y-114454497D01*
X193918491Y-114454497D02*
X193837679Y-114319810D01*
X193837679Y-114319810D02*
X193756866Y-114238998D01*
X193756866Y-114238998D02*
X193622179Y-114158186D01*
X193622179Y-114158186D02*
X193541367Y-114131248D01*
X193541367Y-114131248D02*
X193433618Y-114131248D01*
X193433618Y-114131248D02*
X193325868Y-114185123D01*
X193325868Y-114185123D02*
X193271993Y-114238998D01*
X193271993Y-114238998D02*
X193218118Y-114346747D01*
X193218118Y-114346747D02*
X193218118Y-114400622D01*
X193676054Y-115074057D02*
X193245056Y-115505056D01*
X192571621Y-114939370D02*
X192948744Y-115693618D01*
X192948744Y-115693618D02*
X192194497Y-115316494D01*
X192248372Y-116393990D02*
X192167560Y-115936054D01*
X192571621Y-116070741D02*
X192005935Y-115505056D01*
X192005935Y-115505056D02*
X191790436Y-115720555D01*
X191790436Y-115720555D02*
X191763499Y-115801367D01*
X191763499Y-115801367D02*
X191763499Y-115855242D01*
X191763499Y-115855242D02*
X191790436Y-115936054D01*
X191790436Y-115936054D02*
X191871248Y-116016866D01*
X191871248Y-116016866D02*
X191952061Y-116043804D01*
X191952061Y-116043804D02*
X192005935Y-116043804D01*
X192005935Y-116043804D02*
X192086748Y-116016866D01*
X192086748Y-116016866D02*
X192302247Y-115801367D01*
X191709624Y-116340115D02*
X191521062Y-116528677D01*
X191736561Y-116905800D02*
X192005935Y-116636426D01*
X192005935Y-116636426D02*
X191440250Y-116070741D01*
X191440250Y-116070741D02*
X191170876Y-116340115D01*
X191009251Y-117040488D02*
X191197813Y-116851926D01*
X191494125Y-117148237D02*
X190928439Y-116582552D01*
X190928439Y-116582552D02*
X190659065Y-116851926D01*
X174233431Y-115681435D02*
X174260368Y-115600623D01*
X174260368Y-115600623D02*
X174341180Y-115519811D01*
X174341180Y-115519811D02*
X174448930Y-115465936D01*
X174448930Y-115465936D02*
X174556680Y-115465936D01*
X174556680Y-115465936D02*
X174637492Y-115492873D01*
X174637492Y-115492873D02*
X174772179Y-115573685D01*
X174772179Y-115573685D02*
X174852991Y-115654498D01*
X174852991Y-115654498D02*
X174933803Y-115789185D01*
X174933803Y-115789185D02*
X174960741Y-115869997D01*
X174960741Y-115869997D02*
X174960741Y-115977746D01*
X174960741Y-115977746D02*
X174906866Y-116085496D01*
X174906866Y-116085496D02*
X174852991Y-116139371D01*
X174852991Y-116139371D02*
X174745241Y-116193246D01*
X174745241Y-116193246D02*
X174691367Y-116193246D01*
X174691367Y-116193246D02*
X174502805Y-116004684D01*
X174502805Y-116004684D02*
X174610554Y-115896934D01*
X174502805Y-116489557D02*
X173937119Y-115923872D01*
X173937119Y-115923872D02*
X174179556Y-116812806D01*
X174179556Y-116812806D02*
X173613871Y-116247120D01*
X173910182Y-117082180D02*
X173344497Y-116516494D01*
X173344497Y-116516494D02*
X173209810Y-116651181D01*
X173209810Y-116651181D02*
X173155935Y-116758931D01*
X173155935Y-116758931D02*
X173155935Y-116866680D01*
X173155935Y-116866680D02*
X173182872Y-116947493D01*
X173182872Y-116947493D02*
X173263685Y-117082180D01*
X173263685Y-117082180D02*
X173344497Y-117162992D01*
X173344497Y-117162992D02*
X173479184Y-117243804D01*
X173479184Y-117243804D02*
X173559996Y-117270741D01*
X173559996Y-117270741D02*
X173667746Y-117270741D01*
X173667746Y-117270741D02*
X173775495Y-117216867D01*
X173775495Y-117216867D02*
X173910182Y-117082180D01*
X177015868Y-115184998D02*
X177042805Y-115104185D01*
X177042805Y-115104185D02*
X177123618Y-115023373D01*
X177123618Y-115023373D02*
X177231367Y-114969498D01*
X177231367Y-114969498D02*
X177339117Y-114969498D01*
X177339117Y-114969498D02*
X177419929Y-114996436D01*
X177419929Y-114996436D02*
X177554616Y-115077248D01*
X177554616Y-115077248D02*
X177635428Y-115158060D01*
X177635428Y-115158060D02*
X177716241Y-115292747D01*
X177716241Y-115292747D02*
X177743178Y-115373560D01*
X177743178Y-115373560D02*
X177743178Y-115481309D01*
X177743178Y-115481309D02*
X177689303Y-115589059D01*
X177689303Y-115589059D02*
X177635428Y-115642934D01*
X177635428Y-115642934D02*
X177527679Y-115696808D01*
X177527679Y-115696808D02*
X177473804Y-115696808D01*
X177473804Y-115696808D02*
X177285242Y-115508247D01*
X177285242Y-115508247D02*
X177392992Y-115400497D01*
X177285242Y-115993120D02*
X176719557Y-115427434D01*
X176719557Y-115427434D02*
X176504057Y-115642934D01*
X176504057Y-115642934D02*
X176477120Y-115723746D01*
X176477120Y-115723746D02*
X176477120Y-115777621D01*
X176477120Y-115777621D02*
X176504057Y-115858433D01*
X176504057Y-115858433D02*
X176584870Y-115939245D01*
X176584870Y-115939245D02*
X176665682Y-115966182D01*
X176665682Y-115966182D02*
X176719557Y-115966182D01*
X176719557Y-115966182D02*
X176800369Y-115939245D01*
X176800369Y-115939245D02*
X177015868Y-115723746D01*
X176234683Y-116020057D02*
X176180809Y-116020057D01*
X176180809Y-116020057D02*
X176099996Y-116046995D01*
X176099996Y-116046995D02*
X175965309Y-116181682D01*
X175965309Y-116181682D02*
X175938372Y-116262494D01*
X175938372Y-116262494D02*
X175938372Y-116316369D01*
X175938372Y-116316369D02*
X175965309Y-116397181D01*
X175965309Y-116397181D02*
X176019184Y-116451056D01*
X176019184Y-116451056D02*
X176126934Y-116504930D01*
X176126934Y-116504930D02*
X176773431Y-116504930D01*
X176773431Y-116504930D02*
X176423245Y-116855117D01*
X175695935Y-116558805D02*
X175642060Y-116558805D01*
X175642060Y-116558805D02*
X175561248Y-116585743D01*
X175561248Y-116585743D02*
X175426561Y-116720430D01*
X175426561Y-116720430D02*
X175399624Y-116801242D01*
X175399624Y-116801242D02*
X175399624Y-116855117D01*
X175399624Y-116855117D02*
X175426561Y-116935929D01*
X175426561Y-116935929D02*
X175480436Y-116989804D01*
X175480436Y-116989804D02*
X175588186Y-117043679D01*
X175588186Y-117043679D02*
X176234683Y-117043679D01*
X176234683Y-117043679D02*
X175884497Y-117393865D01*
X187876240Y-115238873D02*
X187606866Y-115508247D01*
X188091739Y-115346623D02*
X187337492Y-114969499D01*
X187337492Y-114969499D02*
X187714615Y-115723746D01*
X186690994Y-115669871D02*
X186717932Y-115589059D01*
X186717932Y-115589059D02*
X186798744Y-115508247D01*
X186798744Y-115508247D02*
X186906494Y-115454372D01*
X186906494Y-115454372D02*
X187014243Y-115454372D01*
X187014243Y-115454372D02*
X187095055Y-115481310D01*
X187095055Y-115481310D02*
X187229742Y-115562122D01*
X187229742Y-115562122D02*
X187310555Y-115642934D01*
X187310555Y-115642934D02*
X187391367Y-115777621D01*
X187391367Y-115777621D02*
X187418304Y-115858433D01*
X187418304Y-115858433D02*
X187418304Y-115966183D01*
X187418304Y-115966183D02*
X187364429Y-116073932D01*
X187364429Y-116073932D02*
X187310555Y-116127807D01*
X187310555Y-116127807D02*
X187202805Y-116181682D01*
X187202805Y-116181682D02*
X187148930Y-116181682D01*
X187148930Y-116181682D02*
X186960368Y-115993120D01*
X186960368Y-115993120D02*
X187068118Y-115885371D01*
X186960368Y-116477993D02*
X186394683Y-115912308D01*
X186394683Y-115912308D02*
X186637120Y-116801242D01*
X186637120Y-116801242D02*
X186071434Y-116235557D01*
X186367746Y-117070616D02*
X185802060Y-116504931D01*
X185802060Y-116504931D02*
X185667373Y-116639618D01*
X185667373Y-116639618D02*
X185613498Y-116747367D01*
X185613498Y-116747367D02*
X185613498Y-116855117D01*
X185613498Y-116855117D02*
X185640436Y-116935929D01*
X185640436Y-116935929D02*
X185721248Y-117070616D01*
X185721248Y-117070616D02*
X185802060Y-117151428D01*
X185802060Y-117151428D02*
X185936747Y-117232241D01*
X185936747Y-117232241D02*
X186017560Y-117259178D01*
X186017560Y-117259178D02*
X186125309Y-117259178D01*
X186125309Y-117259178D02*
X186233059Y-117205303D01*
X186233059Y-117205303D02*
X186367746Y-117070616D01*
X169395868Y-115184998D02*
X169422805Y-115104185D01*
X169422805Y-115104185D02*
X169503618Y-115023373D01*
X169503618Y-115023373D02*
X169611367Y-114969498D01*
X169611367Y-114969498D02*
X169719117Y-114969498D01*
X169719117Y-114969498D02*
X169799929Y-114996436D01*
X169799929Y-114996436D02*
X169934616Y-115077248D01*
X169934616Y-115077248D02*
X170015428Y-115158060D01*
X170015428Y-115158060D02*
X170096241Y-115292747D01*
X170096241Y-115292747D02*
X170123178Y-115373560D01*
X170123178Y-115373560D02*
X170123178Y-115481309D01*
X170123178Y-115481309D02*
X170069303Y-115589059D01*
X170069303Y-115589059D02*
X170015428Y-115642934D01*
X170015428Y-115642934D02*
X169907679Y-115696808D01*
X169907679Y-115696808D02*
X169853804Y-115696808D01*
X169853804Y-115696808D02*
X169665242Y-115508247D01*
X169665242Y-115508247D02*
X169772992Y-115400497D01*
X169665242Y-115993120D02*
X169099557Y-115427434D01*
X169099557Y-115427434D02*
X168884057Y-115642934D01*
X168884057Y-115642934D02*
X168857120Y-115723746D01*
X168857120Y-115723746D02*
X168857120Y-115777621D01*
X168857120Y-115777621D02*
X168884057Y-115858433D01*
X168884057Y-115858433D02*
X168964870Y-115939245D01*
X168964870Y-115939245D02*
X169045682Y-115966182D01*
X169045682Y-115966182D02*
X169099557Y-115966182D01*
X169099557Y-115966182D02*
X169180369Y-115939245D01*
X169180369Y-115939245D02*
X169395868Y-115723746D01*
X168614683Y-116020057D02*
X168560809Y-116020057D01*
X168560809Y-116020057D02*
X168479996Y-116046995D01*
X168479996Y-116046995D02*
X168345309Y-116181682D01*
X168345309Y-116181682D02*
X168318372Y-116262494D01*
X168318372Y-116262494D02*
X168318372Y-116316369D01*
X168318372Y-116316369D02*
X168345309Y-116397181D01*
X168345309Y-116397181D02*
X168399184Y-116451056D01*
X168399184Y-116451056D02*
X168506934Y-116504930D01*
X168506934Y-116504930D02*
X169153431Y-116504930D01*
X169153431Y-116504930D02*
X168803245Y-116855117D01*
X167887373Y-116639618D02*
X167833499Y-116693492D01*
X167833499Y-116693492D02*
X167806561Y-116774305D01*
X167806561Y-116774305D02*
X167806561Y-116828179D01*
X167806561Y-116828179D02*
X167833499Y-116908992D01*
X167833499Y-116908992D02*
X167914311Y-117043679D01*
X167914311Y-117043679D02*
X168048998Y-117178366D01*
X168048998Y-117178366D02*
X168183685Y-117259178D01*
X168183685Y-117259178D02*
X168264497Y-117286115D01*
X168264497Y-117286115D02*
X168318372Y-117286115D01*
X168318372Y-117286115D02*
X168399184Y-117259178D01*
X168399184Y-117259178D02*
X168453059Y-117205303D01*
X168453059Y-117205303D02*
X168479996Y-117124491D01*
X168479996Y-117124491D02*
X168479996Y-117070616D01*
X168479996Y-117070616D02*
X168453059Y-116989804D01*
X168453059Y-116989804D02*
X168372247Y-116855117D01*
X168372247Y-116855117D02*
X168237560Y-116720430D01*
X168237560Y-116720430D02*
X168102873Y-116639618D01*
X168102873Y-116639618D02*
X168022060Y-116612680D01*
X168022060Y-116612680D02*
X167968186Y-116612680D01*
X167968186Y-116612680D02*
X167887373Y-116639618D01*
X204686494Y-141308372D02*
X204713431Y-141227560D01*
X204713431Y-141227560D02*
X204794243Y-141146748D01*
X204794243Y-141146748D02*
X204901993Y-141092873D01*
X204901993Y-141092873D02*
X205009742Y-141092873D01*
X205009742Y-141092873D02*
X205090555Y-141119810D01*
X205090555Y-141119810D02*
X205225242Y-141200623D01*
X205225242Y-141200623D02*
X205306054Y-141281435D01*
X205306054Y-141281435D02*
X205386866Y-141416122D01*
X205386866Y-141416122D02*
X205413803Y-141496934D01*
X205413803Y-141496934D02*
X205413803Y-141604684D01*
X205413803Y-141604684D02*
X205359929Y-141712433D01*
X205359929Y-141712433D02*
X205306054Y-141766308D01*
X205306054Y-141766308D02*
X205198304Y-141820183D01*
X205198304Y-141820183D02*
X205144429Y-141820183D01*
X205144429Y-141820183D02*
X204955868Y-141631621D01*
X204955868Y-141631621D02*
X205063617Y-141523871D01*
X204955868Y-142116494D02*
X204390182Y-141550809D01*
X204390182Y-141550809D02*
X204174683Y-141766308D01*
X204174683Y-141766308D02*
X204147746Y-141847120D01*
X204147746Y-141847120D02*
X204147746Y-141900995D01*
X204147746Y-141900995D02*
X204174683Y-141981807D01*
X204174683Y-141981807D02*
X204255495Y-142062619D01*
X204255495Y-142062619D02*
X204336307Y-142089557D01*
X204336307Y-142089557D02*
X204390182Y-142089557D01*
X204390182Y-142089557D02*
X204470994Y-142062619D01*
X204470994Y-142062619D02*
X204686494Y-141847120D01*
X203716747Y-142224244D02*
X203662872Y-142278119D01*
X203662872Y-142278119D02*
X203635935Y-142358931D01*
X203635935Y-142358931D02*
X203635935Y-142412806D01*
X203635935Y-142412806D02*
X203662872Y-142493618D01*
X203662872Y-142493618D02*
X203743685Y-142628305D01*
X203743685Y-142628305D02*
X203878372Y-142762992D01*
X203878372Y-142762992D02*
X204013059Y-142843804D01*
X204013059Y-142843804D02*
X204093871Y-142870741D01*
X204093871Y-142870741D02*
X204147746Y-142870741D01*
X204147746Y-142870741D02*
X204228558Y-142843804D01*
X204228558Y-142843804D02*
X204282433Y-142789929D01*
X204282433Y-142789929D02*
X204309370Y-142709117D01*
X204309370Y-142709117D02*
X204309370Y-142655242D01*
X204309370Y-142655242D02*
X204282433Y-142574430D01*
X204282433Y-142574430D02*
X204201620Y-142439743D01*
X204201620Y-142439743D02*
X204066933Y-142305056D01*
X204066933Y-142305056D02*
X203932246Y-142224244D01*
X203932246Y-142224244D02*
X203851434Y-142197306D01*
X203851434Y-142197306D02*
X203797559Y-142197306D01*
X203797559Y-142197306D02*
X203716747Y-142224244D01*
X182095868Y-115184998D02*
X182122805Y-115104185D01*
X182122805Y-115104185D02*
X182203618Y-115023373D01*
X182203618Y-115023373D02*
X182311367Y-114969498D01*
X182311367Y-114969498D02*
X182419117Y-114969498D01*
X182419117Y-114969498D02*
X182499929Y-114996436D01*
X182499929Y-114996436D02*
X182634616Y-115077248D01*
X182634616Y-115077248D02*
X182715428Y-115158060D01*
X182715428Y-115158060D02*
X182796241Y-115292747D01*
X182796241Y-115292747D02*
X182823178Y-115373560D01*
X182823178Y-115373560D02*
X182823178Y-115481309D01*
X182823178Y-115481309D02*
X182769303Y-115589059D01*
X182769303Y-115589059D02*
X182715428Y-115642934D01*
X182715428Y-115642934D02*
X182607679Y-115696808D01*
X182607679Y-115696808D02*
X182553804Y-115696808D01*
X182553804Y-115696808D02*
X182365242Y-115508247D01*
X182365242Y-115508247D02*
X182472992Y-115400497D01*
X182365242Y-115993120D02*
X181799557Y-115427434D01*
X181799557Y-115427434D02*
X181584057Y-115642934D01*
X181584057Y-115642934D02*
X181557120Y-115723746D01*
X181557120Y-115723746D02*
X181557120Y-115777621D01*
X181557120Y-115777621D02*
X181584057Y-115858433D01*
X181584057Y-115858433D02*
X181664870Y-115939245D01*
X181664870Y-115939245D02*
X181745682Y-115966182D01*
X181745682Y-115966182D02*
X181799557Y-115966182D01*
X181799557Y-115966182D02*
X181880369Y-115939245D01*
X181880369Y-115939245D02*
X182095868Y-115723746D01*
X181314683Y-116020057D02*
X181260809Y-116020057D01*
X181260809Y-116020057D02*
X181179996Y-116046995D01*
X181179996Y-116046995D02*
X181045309Y-116181682D01*
X181045309Y-116181682D02*
X181018372Y-116262494D01*
X181018372Y-116262494D02*
X181018372Y-116316369D01*
X181018372Y-116316369D02*
X181045309Y-116397181D01*
X181045309Y-116397181D02*
X181099184Y-116451056D01*
X181099184Y-116451056D02*
X181206934Y-116504930D01*
X181206934Y-116504930D02*
X181853431Y-116504930D01*
X181853431Y-116504930D02*
X181503245Y-116855117D01*
X180452686Y-116774305D02*
X180560436Y-116666555D01*
X180560436Y-116666555D02*
X180641248Y-116639618D01*
X180641248Y-116639618D02*
X180695123Y-116639618D01*
X180695123Y-116639618D02*
X180829810Y-116666555D01*
X180829810Y-116666555D02*
X180964497Y-116747367D01*
X180964497Y-116747367D02*
X181179996Y-116962866D01*
X181179996Y-116962866D02*
X181206934Y-117043679D01*
X181206934Y-117043679D02*
X181206934Y-117097553D01*
X181206934Y-117097553D02*
X181179996Y-117178366D01*
X181179996Y-117178366D02*
X181072247Y-117286115D01*
X181072247Y-117286115D02*
X180991434Y-117313053D01*
X180991434Y-117313053D02*
X180937560Y-117313053D01*
X180937560Y-117313053D02*
X180856747Y-117286115D01*
X180856747Y-117286115D02*
X180722060Y-117151428D01*
X180722060Y-117151428D02*
X180695123Y-117070616D01*
X180695123Y-117070616D02*
X180695123Y-117016741D01*
X180695123Y-117016741D02*
X180722060Y-116935929D01*
X180722060Y-116935929D02*
X180829810Y-116828179D01*
X180829810Y-116828179D02*
X180910622Y-116801242D01*
X180910622Y-116801242D02*
X180964497Y-116801242D01*
X180964497Y-116801242D02*
X181045309Y-116828179D01*
X164315868Y-115184998D02*
X164342805Y-115104185D01*
X164342805Y-115104185D02*
X164423618Y-115023373D01*
X164423618Y-115023373D02*
X164531367Y-114969498D01*
X164531367Y-114969498D02*
X164639117Y-114969498D01*
X164639117Y-114969498D02*
X164719929Y-114996436D01*
X164719929Y-114996436D02*
X164854616Y-115077248D01*
X164854616Y-115077248D02*
X164935428Y-115158060D01*
X164935428Y-115158060D02*
X165016241Y-115292747D01*
X165016241Y-115292747D02*
X165043178Y-115373560D01*
X165043178Y-115373560D02*
X165043178Y-115481309D01*
X165043178Y-115481309D02*
X164989303Y-115589059D01*
X164989303Y-115589059D02*
X164935428Y-115642934D01*
X164935428Y-115642934D02*
X164827679Y-115696808D01*
X164827679Y-115696808D02*
X164773804Y-115696808D01*
X164773804Y-115696808D02*
X164585242Y-115508247D01*
X164585242Y-115508247D02*
X164692992Y-115400497D01*
X164585242Y-115993120D02*
X164019557Y-115427434D01*
X164019557Y-115427434D02*
X163804057Y-115642934D01*
X163804057Y-115642934D02*
X163777120Y-115723746D01*
X163777120Y-115723746D02*
X163777120Y-115777621D01*
X163777120Y-115777621D02*
X163804057Y-115858433D01*
X163804057Y-115858433D02*
X163884870Y-115939245D01*
X163884870Y-115939245D02*
X163965682Y-115966182D01*
X163965682Y-115966182D02*
X164019557Y-115966182D01*
X164019557Y-115966182D02*
X164100369Y-115939245D01*
X164100369Y-115939245D02*
X164315868Y-115723746D01*
X163723245Y-116855117D02*
X164046494Y-116531868D01*
X163884870Y-116693492D02*
X163319184Y-116127807D01*
X163319184Y-116127807D02*
X163453871Y-116154744D01*
X163453871Y-116154744D02*
X163561621Y-116154744D01*
X163561621Y-116154744D02*
X163642433Y-116127807D01*
X163076747Y-116855117D02*
X163103685Y-116774305D01*
X163103685Y-116774305D02*
X163103685Y-116720430D01*
X163103685Y-116720430D02*
X163076747Y-116639618D01*
X163076747Y-116639618D02*
X163049810Y-116612680D01*
X163049810Y-116612680D02*
X162968998Y-116585743D01*
X162968998Y-116585743D02*
X162915123Y-116585743D01*
X162915123Y-116585743D02*
X162834311Y-116612680D01*
X162834311Y-116612680D02*
X162726561Y-116720430D01*
X162726561Y-116720430D02*
X162699624Y-116801242D01*
X162699624Y-116801242D02*
X162699624Y-116855117D01*
X162699624Y-116855117D02*
X162726561Y-116935929D01*
X162726561Y-116935929D02*
X162753499Y-116962866D01*
X162753499Y-116962866D02*
X162834311Y-116989804D01*
X162834311Y-116989804D02*
X162888186Y-116989804D01*
X162888186Y-116989804D02*
X162968998Y-116962866D01*
X162968998Y-116962866D02*
X163076747Y-116855117D01*
X163076747Y-116855117D02*
X163157560Y-116828179D01*
X163157560Y-116828179D02*
X163211434Y-116828179D01*
X163211434Y-116828179D02*
X163292247Y-116855117D01*
X163292247Y-116855117D02*
X163399996Y-116962866D01*
X163399996Y-116962866D02*
X163426934Y-117043679D01*
X163426934Y-117043679D02*
X163426934Y-117097553D01*
X163426934Y-117097553D02*
X163399996Y-117178366D01*
X163399996Y-117178366D02*
X163292247Y-117286115D01*
X163292247Y-117286115D02*
X163211434Y-117313053D01*
X163211434Y-117313053D02*
X163157560Y-117313053D01*
X163157560Y-117313053D02*
X163076747Y-117286115D01*
X163076747Y-117286115D02*
X162968998Y-117178366D01*
X162968998Y-117178366D02*
X162942060Y-117097553D01*
X162942060Y-117097553D02*
X162942060Y-117043679D01*
X162942060Y-117043679D02*
X162968998Y-116962866D01*
X189956428Y-140975390D02*
X190032618Y-140937295D01*
X190032618Y-140937295D02*
X190146904Y-140937295D01*
X190146904Y-140937295D02*
X190261190Y-140975390D01*
X190261190Y-140975390D02*
X190337380Y-141051580D01*
X190337380Y-141051580D02*
X190375475Y-141127771D01*
X190375475Y-141127771D02*
X190413571Y-141280152D01*
X190413571Y-141280152D02*
X190413571Y-141394438D01*
X190413571Y-141394438D02*
X190375475Y-141546819D01*
X190375475Y-141546819D02*
X190337380Y-141623009D01*
X190337380Y-141623009D02*
X190261190Y-141699200D01*
X190261190Y-141699200D02*
X190146904Y-141737295D01*
X190146904Y-141737295D02*
X190070713Y-141737295D01*
X190070713Y-141737295D02*
X189956428Y-141699200D01*
X189956428Y-141699200D02*
X189918332Y-141661104D01*
X189918332Y-141661104D02*
X189918332Y-141394438D01*
X189918332Y-141394438D02*
X190070713Y-141394438D01*
X189575475Y-141737295D02*
X189575475Y-140937295D01*
X189575475Y-140937295D02*
X189270713Y-140937295D01*
X189270713Y-140937295D02*
X189194523Y-140975390D01*
X189194523Y-140975390D02*
X189156428Y-141013485D01*
X189156428Y-141013485D02*
X189118332Y-141089676D01*
X189118332Y-141089676D02*
X189118332Y-141203961D01*
X189118332Y-141203961D02*
X189156428Y-141280152D01*
X189156428Y-141280152D02*
X189194523Y-141318247D01*
X189194523Y-141318247D02*
X189270713Y-141356342D01*
X189270713Y-141356342D02*
X189575475Y-141356342D01*
X188394523Y-140937295D02*
X188775475Y-140937295D01*
X188775475Y-140937295D02*
X188813571Y-141318247D01*
X188813571Y-141318247D02*
X188775475Y-141280152D01*
X188775475Y-141280152D02*
X188699285Y-141242057D01*
X188699285Y-141242057D02*
X188508809Y-141242057D01*
X188508809Y-141242057D02*
X188432618Y-141280152D01*
X188432618Y-141280152D02*
X188394523Y-141318247D01*
X188394523Y-141318247D02*
X188356428Y-141394438D01*
X188356428Y-141394438D02*
X188356428Y-141584914D01*
X188356428Y-141584914D02*
X188394523Y-141661104D01*
X188394523Y-141661104D02*
X188432618Y-141699200D01*
X188432618Y-141699200D02*
X188508809Y-141737295D01*
X188508809Y-141737295D02*
X188699285Y-141737295D01*
X188699285Y-141737295D02*
X188775475Y-141699200D01*
X188775475Y-141699200D02*
X188813571Y-141661104D01*
X156695868Y-115184998D02*
X156722805Y-115104185D01*
X156722805Y-115104185D02*
X156803618Y-115023373D01*
X156803618Y-115023373D02*
X156911367Y-114969498D01*
X156911367Y-114969498D02*
X157019117Y-114969498D01*
X157019117Y-114969498D02*
X157099929Y-114996436D01*
X157099929Y-114996436D02*
X157234616Y-115077248D01*
X157234616Y-115077248D02*
X157315428Y-115158060D01*
X157315428Y-115158060D02*
X157396241Y-115292747D01*
X157396241Y-115292747D02*
X157423178Y-115373560D01*
X157423178Y-115373560D02*
X157423178Y-115481309D01*
X157423178Y-115481309D02*
X157369303Y-115589059D01*
X157369303Y-115589059D02*
X157315428Y-115642934D01*
X157315428Y-115642934D02*
X157207679Y-115696808D01*
X157207679Y-115696808D02*
X157153804Y-115696808D01*
X157153804Y-115696808D02*
X156965242Y-115508247D01*
X156965242Y-115508247D02*
X157072992Y-115400497D01*
X156965242Y-115993120D02*
X156399557Y-115427434D01*
X156399557Y-115427434D02*
X156184057Y-115642934D01*
X156184057Y-115642934D02*
X156157120Y-115723746D01*
X156157120Y-115723746D02*
X156157120Y-115777621D01*
X156157120Y-115777621D02*
X156184057Y-115858433D01*
X156184057Y-115858433D02*
X156264870Y-115939245D01*
X156264870Y-115939245D02*
X156345682Y-115966182D01*
X156345682Y-115966182D02*
X156399557Y-115966182D01*
X156399557Y-115966182D02*
X156480369Y-115939245D01*
X156480369Y-115939245D02*
X156695868Y-115723746D01*
X156103245Y-116855117D02*
X156426494Y-116531868D01*
X156264870Y-116693492D02*
X155699184Y-116127807D01*
X155699184Y-116127807D02*
X155833871Y-116154744D01*
X155833871Y-116154744D02*
X155941621Y-116154744D01*
X155941621Y-116154744D02*
X156022433Y-116127807D01*
X155052686Y-116774305D02*
X155160436Y-116666555D01*
X155160436Y-116666555D02*
X155241248Y-116639618D01*
X155241248Y-116639618D02*
X155295123Y-116639618D01*
X155295123Y-116639618D02*
X155429810Y-116666555D01*
X155429810Y-116666555D02*
X155564497Y-116747367D01*
X155564497Y-116747367D02*
X155779996Y-116962866D01*
X155779996Y-116962866D02*
X155806934Y-117043679D01*
X155806934Y-117043679D02*
X155806934Y-117097553D01*
X155806934Y-117097553D02*
X155779996Y-117178366D01*
X155779996Y-117178366D02*
X155672247Y-117286115D01*
X155672247Y-117286115D02*
X155591434Y-117313053D01*
X155591434Y-117313053D02*
X155537560Y-117313053D01*
X155537560Y-117313053D02*
X155456747Y-117286115D01*
X155456747Y-117286115D02*
X155322060Y-117151428D01*
X155322060Y-117151428D02*
X155295123Y-117070616D01*
X155295123Y-117070616D02*
X155295123Y-117016741D01*
X155295123Y-117016741D02*
X155322060Y-116935929D01*
X155322060Y-116935929D02*
X155429810Y-116828179D01*
X155429810Y-116828179D02*
X155510622Y-116801242D01*
X155510622Y-116801242D02*
X155564497Y-116801242D01*
X155564497Y-116801242D02*
X155645309Y-116828179D01*
X198473584Y-113717407D02*
X198123398Y-114067593D01*
X198123398Y-114067593D02*
X198527459Y-114094531D01*
X198527459Y-114094531D02*
X198446646Y-114175343D01*
X198446646Y-114175343D02*
X198419709Y-114256155D01*
X198419709Y-114256155D02*
X198419709Y-114310030D01*
X198419709Y-114310030D02*
X198446646Y-114390842D01*
X198446646Y-114390842D02*
X198581333Y-114525529D01*
X198581333Y-114525529D02*
X198662146Y-114552467D01*
X198662146Y-114552467D02*
X198716020Y-114552467D01*
X198716020Y-114552467D02*
X198796833Y-114525529D01*
X198796833Y-114525529D02*
X198958457Y-114363905D01*
X198958457Y-114363905D02*
X198985394Y-114283093D01*
X198985394Y-114283093D02*
X198985394Y-114229218D01*
X197961773Y-114229218D02*
X198338897Y-114983465D01*
X198338897Y-114983465D02*
X197584649Y-114606342D01*
X197449963Y-114741028D02*
X197099776Y-115091215D01*
X197099776Y-115091215D02*
X197503837Y-115118152D01*
X197503837Y-115118152D02*
X197423025Y-115198964D01*
X197423025Y-115198964D02*
X197396088Y-115279776D01*
X197396088Y-115279776D02*
X197396088Y-115333651D01*
X197396088Y-115333651D02*
X197423025Y-115414464D01*
X197423025Y-115414464D02*
X197557712Y-115549151D01*
X197557712Y-115549151D02*
X197638524Y-115576088D01*
X197638524Y-115576088D02*
X197692399Y-115576088D01*
X197692399Y-115576088D02*
X197773211Y-115549151D01*
X197773211Y-115549151D02*
X197934836Y-115387526D01*
X197934836Y-115387526D02*
X197961773Y-115306714D01*
X197961773Y-115306714D02*
X197961773Y-115252839D01*
X197611587Y-115818525D02*
X197180588Y-116249523D01*
X196695715Y-116034024D02*
X196507153Y-116222586D01*
X196722652Y-116599709D02*
X196992026Y-116330335D01*
X196992026Y-116330335D02*
X196426341Y-115764650D01*
X196426341Y-115764650D02*
X196156967Y-116034024D01*
X196480215Y-116842146D02*
X195914530Y-116276461D01*
X195914530Y-116276461D02*
X196156967Y-117165395D01*
X196156967Y-117165395D02*
X195591281Y-116599710D01*
X199633431Y-141281435D02*
X199660368Y-141200623D01*
X199660368Y-141200623D02*
X199741180Y-141119811D01*
X199741180Y-141119811D02*
X199848930Y-141065936D01*
X199848930Y-141065936D02*
X199956680Y-141065936D01*
X199956680Y-141065936D02*
X200037492Y-141092873D01*
X200037492Y-141092873D02*
X200172179Y-141173685D01*
X200172179Y-141173685D02*
X200252991Y-141254498D01*
X200252991Y-141254498D02*
X200333803Y-141389185D01*
X200333803Y-141389185D02*
X200360741Y-141469997D01*
X200360741Y-141469997D02*
X200360741Y-141577746D01*
X200360741Y-141577746D02*
X200306866Y-141685496D01*
X200306866Y-141685496D02*
X200252991Y-141739371D01*
X200252991Y-141739371D02*
X200145241Y-141793246D01*
X200145241Y-141793246D02*
X200091367Y-141793246D01*
X200091367Y-141793246D02*
X199902805Y-141604684D01*
X199902805Y-141604684D02*
X200010554Y-141496934D01*
X199902805Y-142089557D02*
X199337119Y-141523872D01*
X199337119Y-141523872D02*
X199579556Y-142412806D01*
X199579556Y-142412806D02*
X199013871Y-141847120D01*
X199310182Y-142682180D02*
X198744497Y-142116494D01*
X198744497Y-142116494D02*
X198609810Y-142251181D01*
X198609810Y-142251181D02*
X198555935Y-142358931D01*
X198555935Y-142358931D02*
X198555935Y-142466680D01*
X198555935Y-142466680D02*
X198582872Y-142547493D01*
X198582872Y-142547493D02*
X198663685Y-142682180D01*
X198663685Y-142682180D02*
X198744497Y-142762992D01*
X198744497Y-142762992D02*
X198879184Y-142843804D01*
X198879184Y-142843804D02*
X198959996Y-142870741D01*
X198959996Y-142870741D02*
X199067746Y-142870741D01*
X199067746Y-142870741D02*
X199175495Y-142816867D01*
X199175495Y-142816867D02*
X199310182Y-142682180D01*
X161533431Y-141281435D02*
X161560368Y-141200623D01*
X161560368Y-141200623D02*
X161641180Y-141119811D01*
X161641180Y-141119811D02*
X161748930Y-141065936D01*
X161748930Y-141065936D02*
X161856680Y-141065936D01*
X161856680Y-141065936D02*
X161937492Y-141092873D01*
X161937492Y-141092873D02*
X162072179Y-141173685D01*
X162072179Y-141173685D02*
X162152991Y-141254498D01*
X162152991Y-141254498D02*
X162233803Y-141389185D01*
X162233803Y-141389185D02*
X162260741Y-141469997D01*
X162260741Y-141469997D02*
X162260741Y-141577746D01*
X162260741Y-141577746D02*
X162206866Y-141685496D01*
X162206866Y-141685496D02*
X162152991Y-141739371D01*
X162152991Y-141739371D02*
X162045241Y-141793246D01*
X162045241Y-141793246D02*
X161991367Y-141793246D01*
X161991367Y-141793246D02*
X161802805Y-141604684D01*
X161802805Y-141604684D02*
X161910554Y-141496934D01*
X161802805Y-142089557D02*
X161237119Y-141523872D01*
X161237119Y-141523872D02*
X161479556Y-142412806D01*
X161479556Y-142412806D02*
X160913871Y-141847120D01*
X161210182Y-142682180D02*
X160644497Y-142116494D01*
X160644497Y-142116494D02*
X160509810Y-142251181D01*
X160509810Y-142251181D02*
X160455935Y-142358931D01*
X160455935Y-142358931D02*
X160455935Y-142466680D01*
X160455935Y-142466680D02*
X160482872Y-142547493D01*
X160482872Y-142547493D02*
X160563685Y-142682180D01*
X160563685Y-142682180D02*
X160644497Y-142762992D01*
X160644497Y-142762992D02*
X160779184Y-142843804D01*
X160779184Y-142843804D02*
X160859996Y-142870741D01*
X160859996Y-142870741D02*
X160967746Y-142870741D01*
X160967746Y-142870741D02*
X161075495Y-142816867D01*
X161075495Y-142816867D02*
X161210182Y-142682180D01*
X159235868Y-141338998D02*
X159262805Y-141258185D01*
X159262805Y-141258185D02*
X159343618Y-141177373D01*
X159343618Y-141177373D02*
X159451367Y-141123498D01*
X159451367Y-141123498D02*
X159559117Y-141123498D01*
X159559117Y-141123498D02*
X159639929Y-141150436D01*
X159639929Y-141150436D02*
X159774616Y-141231248D01*
X159774616Y-141231248D02*
X159855428Y-141312060D01*
X159855428Y-141312060D02*
X159936241Y-141446747D01*
X159936241Y-141446747D02*
X159963178Y-141527560D01*
X159963178Y-141527560D02*
X159963178Y-141635309D01*
X159963178Y-141635309D02*
X159909303Y-141743059D01*
X159909303Y-141743059D02*
X159855428Y-141796934D01*
X159855428Y-141796934D02*
X159747679Y-141850808D01*
X159747679Y-141850808D02*
X159693804Y-141850808D01*
X159693804Y-141850808D02*
X159505242Y-141662247D01*
X159505242Y-141662247D02*
X159612992Y-141554497D01*
X159505242Y-142147120D02*
X158939557Y-141581434D01*
X158939557Y-141581434D02*
X158724057Y-141796934D01*
X158724057Y-141796934D02*
X158697120Y-141877746D01*
X158697120Y-141877746D02*
X158697120Y-141931621D01*
X158697120Y-141931621D02*
X158724057Y-142012433D01*
X158724057Y-142012433D02*
X158804870Y-142093245D01*
X158804870Y-142093245D02*
X158885682Y-142120182D01*
X158885682Y-142120182D02*
X158939557Y-142120182D01*
X158939557Y-142120182D02*
X159020369Y-142093245D01*
X159020369Y-142093245D02*
X159235868Y-141877746D01*
X158643245Y-143009117D02*
X158966494Y-142685868D01*
X158804870Y-142847492D02*
X158239184Y-142281807D01*
X158239184Y-142281807D02*
X158373871Y-142308744D01*
X158373871Y-142308744D02*
X158481621Y-142308744D01*
X158481621Y-142308744D02*
X158562433Y-142281807D01*
X157781248Y-143116866D02*
X158158372Y-143493990D01*
X157700436Y-142766680D02*
X158239184Y-143036054D01*
X158239184Y-143036054D02*
X157888998Y-143386240D01*
X166855868Y-115184998D02*
X166882805Y-115104185D01*
X166882805Y-115104185D02*
X166963618Y-115023373D01*
X166963618Y-115023373D02*
X167071367Y-114969498D01*
X167071367Y-114969498D02*
X167179117Y-114969498D01*
X167179117Y-114969498D02*
X167259929Y-114996436D01*
X167259929Y-114996436D02*
X167394616Y-115077248D01*
X167394616Y-115077248D02*
X167475428Y-115158060D01*
X167475428Y-115158060D02*
X167556241Y-115292747D01*
X167556241Y-115292747D02*
X167583178Y-115373560D01*
X167583178Y-115373560D02*
X167583178Y-115481309D01*
X167583178Y-115481309D02*
X167529303Y-115589059D01*
X167529303Y-115589059D02*
X167475428Y-115642934D01*
X167475428Y-115642934D02*
X167367679Y-115696808D01*
X167367679Y-115696808D02*
X167313804Y-115696808D01*
X167313804Y-115696808D02*
X167125242Y-115508247D01*
X167125242Y-115508247D02*
X167232992Y-115400497D01*
X167125242Y-115993120D02*
X166559557Y-115427434D01*
X166559557Y-115427434D02*
X166344057Y-115642934D01*
X166344057Y-115642934D02*
X166317120Y-115723746D01*
X166317120Y-115723746D02*
X166317120Y-115777621D01*
X166317120Y-115777621D02*
X166344057Y-115858433D01*
X166344057Y-115858433D02*
X166424870Y-115939245D01*
X166424870Y-115939245D02*
X166505682Y-115966182D01*
X166505682Y-115966182D02*
X166559557Y-115966182D01*
X166559557Y-115966182D02*
X166640369Y-115939245D01*
X166640369Y-115939245D02*
X166855868Y-115723746D01*
X166263245Y-116855117D02*
X166586494Y-116531868D01*
X166424870Y-116693492D02*
X165859184Y-116127807D01*
X165859184Y-116127807D02*
X165993871Y-116154744D01*
X165993871Y-116154744D02*
X166101621Y-116154744D01*
X166101621Y-116154744D02*
X166182433Y-116127807D01*
X165993871Y-117124491D02*
X165886121Y-117232240D01*
X165886121Y-117232240D02*
X165805309Y-117259178D01*
X165805309Y-117259178D02*
X165751434Y-117259178D01*
X165751434Y-117259178D02*
X165616747Y-117232240D01*
X165616747Y-117232240D02*
X165482060Y-117151428D01*
X165482060Y-117151428D02*
X165266561Y-116935929D01*
X165266561Y-116935929D02*
X165239624Y-116855117D01*
X165239624Y-116855117D02*
X165239624Y-116801242D01*
X165239624Y-116801242D02*
X165266561Y-116720430D01*
X165266561Y-116720430D02*
X165374311Y-116612680D01*
X165374311Y-116612680D02*
X165455123Y-116585743D01*
X165455123Y-116585743D02*
X165508998Y-116585743D01*
X165508998Y-116585743D02*
X165589810Y-116612680D01*
X165589810Y-116612680D02*
X165724497Y-116747367D01*
X165724497Y-116747367D02*
X165751434Y-116828179D01*
X165751434Y-116828179D02*
X165751434Y-116882054D01*
X165751434Y-116882054D02*
X165724497Y-116962866D01*
X165724497Y-116962866D02*
X165616747Y-117070616D01*
X165616747Y-117070616D02*
X165535935Y-117097553D01*
X165535935Y-117097553D02*
X165482060Y-117097553D01*
X165482060Y-117097553D02*
X165401248Y-117070616D01*
X179838710Y-116033651D02*
X179757898Y-115575716D01*
X180161959Y-115710403D02*
X179596274Y-115144717D01*
X179596274Y-115144717D02*
X179380775Y-115360216D01*
X179380775Y-115360216D02*
X179353837Y-115441029D01*
X179353837Y-115441029D02*
X179353837Y-115494903D01*
X179353837Y-115494903D02*
X179380775Y-115575716D01*
X179380775Y-115575716D02*
X179461587Y-115656528D01*
X179461587Y-115656528D02*
X179542399Y-115683465D01*
X179542399Y-115683465D02*
X179596274Y-115683465D01*
X179596274Y-115683465D02*
X179677086Y-115656528D01*
X179677086Y-115656528D02*
X179892585Y-115441029D01*
X179030588Y-115710403D02*
X179488524Y-116168338D01*
X179488524Y-116168338D02*
X179515462Y-116249151D01*
X179515462Y-116249151D02*
X179515462Y-116303025D01*
X179515462Y-116303025D02*
X179488524Y-116383838D01*
X179488524Y-116383838D02*
X179380775Y-116491587D01*
X179380775Y-116491587D02*
X179299962Y-116518525D01*
X179299962Y-116518525D02*
X179246088Y-116518525D01*
X179246088Y-116518525D02*
X179165275Y-116491587D01*
X179165275Y-116491587D02*
X178707340Y-116033651D01*
X179003651Y-116868711D02*
X178437966Y-116303025D01*
X178437966Y-116303025D02*
X178680402Y-117191959D01*
X178680402Y-117191959D02*
X178114717Y-116626274D01*
X194526494Y-141308372D02*
X194553431Y-141227560D01*
X194553431Y-141227560D02*
X194634243Y-141146748D01*
X194634243Y-141146748D02*
X194741993Y-141092873D01*
X194741993Y-141092873D02*
X194849742Y-141092873D01*
X194849742Y-141092873D02*
X194930555Y-141119810D01*
X194930555Y-141119810D02*
X195065242Y-141200623D01*
X195065242Y-141200623D02*
X195146054Y-141281435D01*
X195146054Y-141281435D02*
X195226866Y-141416122D01*
X195226866Y-141416122D02*
X195253803Y-141496934D01*
X195253803Y-141496934D02*
X195253803Y-141604684D01*
X195253803Y-141604684D02*
X195199929Y-141712433D01*
X195199929Y-141712433D02*
X195146054Y-141766308D01*
X195146054Y-141766308D02*
X195038304Y-141820183D01*
X195038304Y-141820183D02*
X194984429Y-141820183D01*
X194984429Y-141820183D02*
X194795868Y-141631621D01*
X194795868Y-141631621D02*
X194903617Y-141523871D01*
X194795868Y-142116494D02*
X194230182Y-141550809D01*
X194230182Y-141550809D02*
X194014683Y-141766308D01*
X194014683Y-141766308D02*
X193987746Y-141847120D01*
X193987746Y-141847120D02*
X193987746Y-141900995D01*
X193987746Y-141900995D02*
X194014683Y-141981807D01*
X194014683Y-141981807D02*
X194095495Y-142062619D01*
X194095495Y-142062619D02*
X194176307Y-142089557D01*
X194176307Y-142089557D02*
X194230182Y-142089557D01*
X194230182Y-142089557D02*
X194310994Y-142062619D01*
X194310994Y-142062619D02*
X194526494Y-141847120D01*
X193718372Y-142062619D02*
X193368185Y-142412806D01*
X193368185Y-142412806D02*
X193772246Y-142439743D01*
X193772246Y-142439743D02*
X193691434Y-142520555D01*
X193691434Y-142520555D02*
X193664497Y-142601367D01*
X193664497Y-142601367D02*
X193664497Y-142655242D01*
X193664497Y-142655242D02*
X193691434Y-142736054D01*
X193691434Y-142736054D02*
X193826121Y-142870741D01*
X193826121Y-142870741D02*
X193906933Y-142897679D01*
X193906933Y-142897679D02*
X193960808Y-142897679D01*
X193960808Y-142897679D02*
X194041620Y-142870741D01*
X194041620Y-142870741D02*
X194203245Y-142709117D01*
X194203245Y-142709117D02*
X194230182Y-142628305D01*
X194230182Y-142628305D02*
X194230182Y-142574430D01*
X184625868Y-115184998D02*
X184652805Y-115104185D01*
X184652805Y-115104185D02*
X184733618Y-115023373D01*
X184733618Y-115023373D02*
X184841367Y-114969498D01*
X184841367Y-114969498D02*
X184949117Y-114969498D01*
X184949117Y-114969498D02*
X185029929Y-114996436D01*
X185029929Y-114996436D02*
X185164616Y-115077248D01*
X185164616Y-115077248D02*
X185245428Y-115158060D01*
X185245428Y-115158060D02*
X185326241Y-115292747D01*
X185326241Y-115292747D02*
X185353178Y-115373560D01*
X185353178Y-115373560D02*
X185353178Y-115481309D01*
X185353178Y-115481309D02*
X185299303Y-115589059D01*
X185299303Y-115589059D02*
X185245428Y-115642934D01*
X185245428Y-115642934D02*
X185137679Y-115696808D01*
X185137679Y-115696808D02*
X185083804Y-115696808D01*
X185083804Y-115696808D02*
X184895242Y-115508247D01*
X184895242Y-115508247D02*
X185002992Y-115400497D01*
X184895242Y-115993120D02*
X184329557Y-115427434D01*
X184329557Y-115427434D02*
X184114057Y-115642934D01*
X184114057Y-115642934D02*
X184087120Y-115723746D01*
X184087120Y-115723746D02*
X184087120Y-115777621D01*
X184087120Y-115777621D02*
X184114057Y-115858433D01*
X184114057Y-115858433D02*
X184194870Y-115939245D01*
X184194870Y-115939245D02*
X184275682Y-115966182D01*
X184275682Y-115966182D02*
X184329557Y-115966182D01*
X184329557Y-115966182D02*
X184410369Y-115939245D01*
X184410369Y-115939245D02*
X184625868Y-115723746D01*
X183844683Y-116020057D02*
X183790809Y-116020057D01*
X183790809Y-116020057D02*
X183709996Y-116046995D01*
X183709996Y-116046995D02*
X183575309Y-116181682D01*
X183575309Y-116181682D02*
X183548372Y-116262494D01*
X183548372Y-116262494D02*
X183548372Y-116316369D01*
X183548372Y-116316369D02*
X183575309Y-116397181D01*
X183575309Y-116397181D02*
X183629184Y-116451056D01*
X183629184Y-116451056D02*
X183736934Y-116504930D01*
X183736934Y-116504930D02*
X184383431Y-116504930D01*
X184383431Y-116504930D02*
X184033245Y-116855117D01*
X183278998Y-116477993D02*
X182901874Y-116855117D01*
X182901874Y-116855117D02*
X183709996Y-117178366D01*
X166855868Y-141438998D02*
X166882805Y-141358185D01*
X166882805Y-141358185D02*
X166963618Y-141277373D01*
X166963618Y-141277373D02*
X167071367Y-141223498D01*
X167071367Y-141223498D02*
X167179117Y-141223498D01*
X167179117Y-141223498D02*
X167259929Y-141250436D01*
X167259929Y-141250436D02*
X167394616Y-141331248D01*
X167394616Y-141331248D02*
X167475428Y-141412060D01*
X167475428Y-141412060D02*
X167556241Y-141546747D01*
X167556241Y-141546747D02*
X167583178Y-141627560D01*
X167583178Y-141627560D02*
X167583178Y-141735309D01*
X167583178Y-141735309D02*
X167529303Y-141843059D01*
X167529303Y-141843059D02*
X167475428Y-141896934D01*
X167475428Y-141896934D02*
X167367679Y-141950808D01*
X167367679Y-141950808D02*
X167313804Y-141950808D01*
X167313804Y-141950808D02*
X167125242Y-141762247D01*
X167125242Y-141762247D02*
X167232992Y-141654497D01*
X167125242Y-142247120D02*
X166559557Y-141681434D01*
X166559557Y-141681434D02*
X166344057Y-141896934D01*
X166344057Y-141896934D02*
X166317120Y-141977746D01*
X166317120Y-141977746D02*
X166317120Y-142031621D01*
X166317120Y-142031621D02*
X166344057Y-142112433D01*
X166344057Y-142112433D02*
X166424870Y-142193245D01*
X166424870Y-142193245D02*
X166505682Y-142220182D01*
X166505682Y-142220182D02*
X166559557Y-142220182D01*
X166559557Y-142220182D02*
X166640369Y-142193245D01*
X166640369Y-142193245D02*
X166855868Y-141977746D01*
X166263245Y-143109117D02*
X166586494Y-142785868D01*
X166424870Y-142947492D02*
X165859184Y-142381807D01*
X165859184Y-142381807D02*
X165993871Y-142408744D01*
X165993871Y-142408744D02*
X166101621Y-142408744D01*
X166101621Y-142408744D02*
X166182433Y-142381807D01*
X165535935Y-142812805D02*
X165482060Y-142812805D01*
X165482060Y-142812805D02*
X165401248Y-142839743D01*
X165401248Y-142839743D02*
X165266561Y-142974430D01*
X165266561Y-142974430D02*
X165239624Y-143055242D01*
X165239624Y-143055242D02*
X165239624Y-143109117D01*
X165239624Y-143109117D02*
X165266561Y-143189929D01*
X165266561Y-143189929D02*
X165320436Y-143243804D01*
X165320436Y-143243804D02*
X165428186Y-143297679D01*
X165428186Y-143297679D02*
X166074683Y-143297679D01*
X166074683Y-143297679D02*
X165724497Y-143647865D01*
X177176428Y-140975390D02*
X177252618Y-140937295D01*
X177252618Y-140937295D02*
X177366904Y-140937295D01*
X177366904Y-140937295D02*
X177481190Y-140975390D01*
X177481190Y-140975390D02*
X177557380Y-141051580D01*
X177557380Y-141051580D02*
X177595475Y-141127771D01*
X177595475Y-141127771D02*
X177633571Y-141280152D01*
X177633571Y-141280152D02*
X177633571Y-141394438D01*
X177633571Y-141394438D02*
X177595475Y-141546819D01*
X177595475Y-141546819D02*
X177557380Y-141623009D01*
X177557380Y-141623009D02*
X177481190Y-141699200D01*
X177481190Y-141699200D02*
X177366904Y-141737295D01*
X177366904Y-141737295D02*
X177290713Y-141737295D01*
X177290713Y-141737295D02*
X177176428Y-141699200D01*
X177176428Y-141699200D02*
X177138332Y-141661104D01*
X177138332Y-141661104D02*
X177138332Y-141394438D01*
X177138332Y-141394438D02*
X177290713Y-141394438D01*
X176795475Y-141737295D02*
X176795475Y-140937295D01*
X176795475Y-140937295D02*
X176490713Y-140937295D01*
X176490713Y-140937295D02*
X176414523Y-140975390D01*
X176414523Y-140975390D02*
X176376428Y-141013485D01*
X176376428Y-141013485D02*
X176338332Y-141089676D01*
X176338332Y-141089676D02*
X176338332Y-141203961D01*
X176338332Y-141203961D02*
X176376428Y-141280152D01*
X176376428Y-141280152D02*
X176414523Y-141318247D01*
X176414523Y-141318247D02*
X176490713Y-141356342D01*
X176490713Y-141356342D02*
X176795475Y-141356342D01*
X175957380Y-141737295D02*
X175804999Y-141737295D01*
X175804999Y-141737295D02*
X175728809Y-141699200D01*
X175728809Y-141699200D02*
X175690713Y-141661104D01*
X175690713Y-141661104D02*
X175614523Y-141546819D01*
X175614523Y-141546819D02*
X175576428Y-141394438D01*
X175576428Y-141394438D02*
X175576428Y-141089676D01*
X175576428Y-141089676D02*
X175614523Y-141013485D01*
X175614523Y-141013485D02*
X175652618Y-140975390D01*
X175652618Y-140975390D02*
X175728809Y-140937295D01*
X175728809Y-140937295D02*
X175881190Y-140937295D01*
X175881190Y-140937295D02*
X175957380Y-140975390D01*
X175957380Y-140975390D02*
X175995475Y-141013485D01*
X175995475Y-141013485D02*
X176033571Y-141089676D01*
X176033571Y-141089676D02*
X176033571Y-141280152D01*
X176033571Y-141280152D02*
X175995475Y-141356342D01*
X175995475Y-141356342D02*
X175957380Y-141394438D01*
X175957380Y-141394438D02*
X175881190Y-141432533D01*
X175881190Y-141432533D02*
X175728809Y-141432533D01*
X175728809Y-141432533D02*
X175652618Y-141394438D01*
X175652618Y-141394438D02*
X175614523Y-141356342D01*
X175614523Y-141356342D02*
X175576428Y-141280152D01*
X154559200Y-121899761D02*
X154597295Y-122014047D01*
X154597295Y-122014047D02*
X154597295Y-122204523D01*
X154597295Y-122204523D02*
X154559200Y-122280714D01*
X154559200Y-122280714D02*
X154521104Y-122318809D01*
X154521104Y-122318809D02*
X154444914Y-122356904D01*
X154444914Y-122356904D02*
X154368723Y-122356904D01*
X154368723Y-122356904D02*
X154292533Y-122318809D01*
X154292533Y-122318809D02*
X154254438Y-122280714D01*
X154254438Y-122280714D02*
X154216342Y-122204523D01*
X154216342Y-122204523D02*
X154178247Y-122052142D01*
X154178247Y-122052142D02*
X154140152Y-121975952D01*
X154140152Y-121975952D02*
X154102057Y-121937857D01*
X154102057Y-121937857D02*
X154025866Y-121899761D01*
X154025866Y-121899761D02*
X153949676Y-121899761D01*
X153949676Y-121899761D02*
X153873485Y-121937857D01*
X153873485Y-121937857D02*
X153835390Y-121975952D01*
X153835390Y-121975952D02*
X153797295Y-122052142D01*
X153797295Y-122052142D02*
X153797295Y-122242619D01*
X153797295Y-122242619D02*
X153835390Y-122356904D01*
X153797295Y-122623571D02*
X154597295Y-122814047D01*
X154597295Y-122814047D02*
X154025866Y-122966428D01*
X154025866Y-122966428D02*
X154597295Y-123118809D01*
X154597295Y-123118809D02*
X153797295Y-123309286D01*
X154597295Y-123614048D02*
X153797295Y-123614048D01*
X153797295Y-123614048D02*
X153797295Y-123804524D01*
X153797295Y-123804524D02*
X153835390Y-123918810D01*
X153835390Y-123918810D02*
X153911580Y-123995000D01*
X153911580Y-123995000D02*
X153987771Y-124033095D01*
X153987771Y-124033095D02*
X154140152Y-124071191D01*
X154140152Y-124071191D02*
X154254438Y-124071191D01*
X154254438Y-124071191D02*
X154406819Y-124033095D01*
X154406819Y-124033095D02*
X154483009Y-123995000D01*
X154483009Y-123995000D02*
X154559200Y-123918810D01*
X154559200Y-123918810D02*
X154597295Y-123804524D01*
X154597295Y-123804524D02*
X154597295Y-123614048D01*
X154597295Y-124414048D02*
X153797295Y-124414048D01*
X153797295Y-124947381D02*
X153797295Y-125099762D01*
X153797295Y-125099762D02*
X153835390Y-125175952D01*
X153835390Y-125175952D02*
X153911580Y-125252143D01*
X153911580Y-125252143D02*
X154063961Y-125290238D01*
X154063961Y-125290238D02*
X154330628Y-125290238D01*
X154330628Y-125290238D02*
X154483009Y-125252143D01*
X154483009Y-125252143D02*
X154559200Y-125175952D01*
X154559200Y-125175952D02*
X154597295Y-125099762D01*
X154597295Y-125099762D02*
X154597295Y-124947381D01*
X154597295Y-124947381D02*
X154559200Y-124871190D01*
X154559200Y-124871190D02*
X154483009Y-124795000D01*
X154483009Y-124795000D02*
X154330628Y-124756904D01*
X154330628Y-124756904D02*
X154063961Y-124756904D01*
X154063961Y-124756904D02*
X153911580Y-124795000D01*
X153911580Y-124795000D02*
X153835390Y-124871190D01*
X153835390Y-124871190D02*
X153797295Y-124947381D01*
X161533431Y-115681435D02*
X161560368Y-115600623D01*
X161560368Y-115600623D02*
X161641180Y-115519811D01*
X161641180Y-115519811D02*
X161748930Y-115465936D01*
X161748930Y-115465936D02*
X161856680Y-115465936D01*
X161856680Y-115465936D02*
X161937492Y-115492873D01*
X161937492Y-115492873D02*
X162072179Y-115573685D01*
X162072179Y-115573685D02*
X162152991Y-115654498D01*
X162152991Y-115654498D02*
X162233803Y-115789185D01*
X162233803Y-115789185D02*
X162260741Y-115869997D01*
X162260741Y-115869997D02*
X162260741Y-115977746D01*
X162260741Y-115977746D02*
X162206866Y-116085496D01*
X162206866Y-116085496D02*
X162152991Y-116139371D01*
X162152991Y-116139371D02*
X162045241Y-116193246D01*
X162045241Y-116193246D02*
X161991367Y-116193246D01*
X161991367Y-116193246D02*
X161802805Y-116004684D01*
X161802805Y-116004684D02*
X161910554Y-115896934D01*
X161802805Y-116489557D02*
X161237119Y-115923872D01*
X161237119Y-115923872D02*
X161479556Y-116812806D01*
X161479556Y-116812806D02*
X160913871Y-116247120D01*
X161210182Y-117082180D02*
X160644497Y-116516494D01*
X160644497Y-116516494D02*
X160509810Y-116651181D01*
X160509810Y-116651181D02*
X160455935Y-116758931D01*
X160455935Y-116758931D02*
X160455935Y-116866680D01*
X160455935Y-116866680D02*
X160482872Y-116947493D01*
X160482872Y-116947493D02*
X160563685Y-117082180D01*
X160563685Y-117082180D02*
X160644497Y-117162992D01*
X160644497Y-117162992D02*
X160779184Y-117243804D01*
X160779184Y-117243804D02*
X160859996Y-117270741D01*
X160859996Y-117270741D02*
X160967746Y-117270741D01*
X160967746Y-117270741D02*
X161075495Y-117216867D01*
X161075495Y-117216867D02*
X161210182Y-117082180D01*
X202613839Y-115860222D02*
X202782899Y-116686375D01*
X202782899Y-116686375D02*
X202151959Y-116126888D01*
X202334963Y-116901003D02*
X202255036Y-116991137D01*
X202255036Y-116991137D02*
X202090079Y-117086375D01*
X202090079Y-117086375D02*
X202005048Y-117091479D01*
X202005048Y-117091479D02*
X201953009Y-117077535D01*
X201953009Y-117077535D02*
X201881923Y-117030600D01*
X201881923Y-117030600D02*
X201843827Y-116964617D01*
X201843827Y-116964617D02*
X201838724Y-116879587D01*
X201838724Y-116879587D02*
X201852667Y-116827548D01*
X201852667Y-116827548D02*
X201899603Y-116756461D01*
X201899603Y-116756461D02*
X202012521Y-116647279D01*
X202012521Y-116647279D02*
X202059456Y-116576192D01*
X202059456Y-116576192D02*
X202073400Y-116524153D01*
X202073400Y-116524153D02*
X202068296Y-116439123D01*
X202068296Y-116439123D02*
X202030201Y-116373140D01*
X202030201Y-116373140D02*
X201959114Y-116326205D01*
X201959114Y-116326205D02*
X201907075Y-116312261D01*
X201907075Y-116312261D02*
X201822045Y-116317365D01*
X201822045Y-116317365D02*
X201657087Y-116412603D01*
X201657087Y-116412603D02*
X201577161Y-116502737D01*
X201338748Y-117080271D02*
X201529224Y-117410185D01*
X201360164Y-116584031D02*
X201338748Y-117080271D01*
X201338748Y-117080271D02*
X200898284Y-116850698D01*
X201081288Y-117624812D02*
X201001361Y-117714947D01*
X201001361Y-117714947D02*
X200836404Y-117810185D01*
X200836404Y-117810185D02*
X200751374Y-117815289D01*
X200751374Y-117815289D02*
X200699334Y-117801345D01*
X200699334Y-117801345D02*
X200628248Y-117754410D01*
X200628248Y-117754410D02*
X200590153Y-117688427D01*
X200590153Y-117688427D02*
X200585049Y-117603396D01*
X200585049Y-117603396D02*
X200598993Y-117551357D01*
X200598993Y-117551357D02*
X200645928Y-117480270D01*
X200645928Y-117480270D02*
X200758846Y-117371088D01*
X200758846Y-117371088D02*
X200805781Y-117300002D01*
X200805781Y-117300002D02*
X200819725Y-117247963D01*
X200819725Y-117247963D02*
X200814621Y-117162932D01*
X200814621Y-117162932D02*
X200776526Y-117096949D01*
X200776526Y-117096949D02*
X200705439Y-117050014D01*
X200705439Y-117050014D02*
X200653400Y-117036070D01*
X200653400Y-117036070D02*
X200568370Y-117041174D01*
X200568370Y-117041174D02*
X200403413Y-117136412D01*
X200403413Y-117136412D02*
X200323486Y-117226546D01*
X159235868Y-115184998D02*
X159262805Y-115104185D01*
X159262805Y-115104185D02*
X159343618Y-115023373D01*
X159343618Y-115023373D02*
X159451367Y-114969498D01*
X159451367Y-114969498D02*
X159559117Y-114969498D01*
X159559117Y-114969498D02*
X159639929Y-114996436D01*
X159639929Y-114996436D02*
X159774616Y-115077248D01*
X159774616Y-115077248D02*
X159855428Y-115158060D01*
X159855428Y-115158060D02*
X159936241Y-115292747D01*
X159936241Y-115292747D02*
X159963178Y-115373560D01*
X159963178Y-115373560D02*
X159963178Y-115481309D01*
X159963178Y-115481309D02*
X159909303Y-115589059D01*
X159909303Y-115589059D02*
X159855428Y-115642934D01*
X159855428Y-115642934D02*
X159747679Y-115696808D01*
X159747679Y-115696808D02*
X159693804Y-115696808D01*
X159693804Y-115696808D02*
X159505242Y-115508247D01*
X159505242Y-115508247D02*
X159612992Y-115400497D01*
X159505242Y-115993120D02*
X158939557Y-115427434D01*
X158939557Y-115427434D02*
X158724057Y-115642934D01*
X158724057Y-115642934D02*
X158697120Y-115723746D01*
X158697120Y-115723746D02*
X158697120Y-115777621D01*
X158697120Y-115777621D02*
X158724057Y-115858433D01*
X158724057Y-115858433D02*
X158804870Y-115939245D01*
X158804870Y-115939245D02*
X158885682Y-115966182D01*
X158885682Y-115966182D02*
X158939557Y-115966182D01*
X158939557Y-115966182D02*
X159020369Y-115939245D01*
X159020369Y-115939245D02*
X159235868Y-115723746D01*
X158643245Y-116855117D02*
X158966494Y-116531868D01*
X158804870Y-116693492D02*
X158239184Y-116127807D01*
X158239184Y-116127807D02*
X158373871Y-116154744D01*
X158373871Y-116154744D02*
X158481621Y-116154744D01*
X158481621Y-116154744D02*
X158562433Y-116127807D01*
X157888998Y-116477993D02*
X157511874Y-116855117D01*
X157511874Y-116855117D02*
X158319996Y-117178366D01*
X169395868Y-141438998D02*
X169422805Y-141358185D01*
X169422805Y-141358185D02*
X169503618Y-141277373D01*
X169503618Y-141277373D02*
X169611367Y-141223498D01*
X169611367Y-141223498D02*
X169719117Y-141223498D01*
X169719117Y-141223498D02*
X169799929Y-141250436D01*
X169799929Y-141250436D02*
X169934616Y-141331248D01*
X169934616Y-141331248D02*
X170015428Y-141412060D01*
X170015428Y-141412060D02*
X170096241Y-141546747D01*
X170096241Y-141546747D02*
X170123178Y-141627560D01*
X170123178Y-141627560D02*
X170123178Y-141735309D01*
X170123178Y-141735309D02*
X170069303Y-141843059D01*
X170069303Y-141843059D02*
X170015428Y-141896934D01*
X170015428Y-141896934D02*
X169907679Y-141950808D01*
X169907679Y-141950808D02*
X169853804Y-141950808D01*
X169853804Y-141950808D02*
X169665242Y-141762247D01*
X169665242Y-141762247D02*
X169772992Y-141654497D01*
X169665242Y-142247120D02*
X169099557Y-141681434D01*
X169099557Y-141681434D02*
X168884057Y-141896934D01*
X168884057Y-141896934D02*
X168857120Y-141977746D01*
X168857120Y-141977746D02*
X168857120Y-142031621D01*
X168857120Y-142031621D02*
X168884057Y-142112433D01*
X168884057Y-142112433D02*
X168964870Y-142193245D01*
X168964870Y-142193245D02*
X169045682Y-142220182D01*
X169045682Y-142220182D02*
X169099557Y-142220182D01*
X169099557Y-142220182D02*
X169180369Y-142193245D01*
X169180369Y-142193245D02*
X169395868Y-141977746D01*
X168803245Y-143109117D02*
X169126494Y-142785868D01*
X168964870Y-142947492D02*
X168399184Y-142381807D01*
X168399184Y-142381807D02*
X168533871Y-142408744D01*
X168533871Y-142408744D02*
X168641621Y-142408744D01*
X168641621Y-142408744D02*
X168722433Y-142381807D01*
X168264497Y-143647865D02*
X168587746Y-143324616D01*
X168426121Y-143486240D02*
X167860436Y-142920555D01*
X167860436Y-142920555D02*
X167995123Y-142947492D01*
X167995123Y-142947492D02*
X168102873Y-142947492D01*
X168102873Y-142947492D02*
X168183685Y-142920555D01*
X179756428Y-141015390D02*
X179832618Y-140977295D01*
X179832618Y-140977295D02*
X179946904Y-140977295D01*
X179946904Y-140977295D02*
X180061190Y-141015390D01*
X180061190Y-141015390D02*
X180137380Y-141091580D01*
X180137380Y-141091580D02*
X180175475Y-141167771D01*
X180175475Y-141167771D02*
X180213571Y-141320152D01*
X180213571Y-141320152D02*
X180213571Y-141434438D01*
X180213571Y-141434438D02*
X180175475Y-141586819D01*
X180175475Y-141586819D02*
X180137380Y-141663009D01*
X180137380Y-141663009D02*
X180061190Y-141739200D01*
X180061190Y-141739200D02*
X179946904Y-141777295D01*
X179946904Y-141777295D02*
X179870713Y-141777295D01*
X179870713Y-141777295D02*
X179756428Y-141739200D01*
X179756428Y-141739200D02*
X179718332Y-141701104D01*
X179718332Y-141701104D02*
X179718332Y-141434438D01*
X179718332Y-141434438D02*
X179870713Y-141434438D01*
X179375475Y-141777295D02*
X179375475Y-140977295D01*
X179375475Y-140977295D02*
X179070713Y-140977295D01*
X179070713Y-140977295D02*
X178994523Y-141015390D01*
X178994523Y-141015390D02*
X178956428Y-141053485D01*
X178956428Y-141053485D02*
X178918332Y-141129676D01*
X178918332Y-141129676D02*
X178918332Y-141243961D01*
X178918332Y-141243961D02*
X178956428Y-141320152D01*
X178956428Y-141320152D02*
X178994523Y-141358247D01*
X178994523Y-141358247D02*
X179070713Y-141396342D01*
X179070713Y-141396342D02*
X179375475Y-141396342D01*
X178461190Y-141320152D02*
X178537380Y-141282057D01*
X178537380Y-141282057D02*
X178575475Y-141243961D01*
X178575475Y-141243961D02*
X178613571Y-141167771D01*
X178613571Y-141167771D02*
X178613571Y-141129676D01*
X178613571Y-141129676D02*
X178575475Y-141053485D01*
X178575475Y-141053485D02*
X178537380Y-141015390D01*
X178537380Y-141015390D02*
X178461190Y-140977295D01*
X178461190Y-140977295D02*
X178308809Y-140977295D01*
X178308809Y-140977295D02*
X178232618Y-141015390D01*
X178232618Y-141015390D02*
X178194523Y-141053485D01*
X178194523Y-141053485D02*
X178156428Y-141129676D01*
X178156428Y-141129676D02*
X178156428Y-141167771D01*
X178156428Y-141167771D02*
X178194523Y-141243961D01*
X178194523Y-141243961D02*
X178232618Y-141282057D01*
X178232618Y-141282057D02*
X178308809Y-141320152D01*
X178308809Y-141320152D02*
X178461190Y-141320152D01*
X178461190Y-141320152D02*
X178537380Y-141358247D01*
X178537380Y-141358247D02*
X178575475Y-141396342D01*
X178575475Y-141396342D02*
X178613571Y-141472533D01*
X178613571Y-141472533D02*
X178613571Y-141624914D01*
X178613571Y-141624914D02*
X178575475Y-141701104D01*
X178575475Y-141701104D02*
X178537380Y-141739200D01*
X178537380Y-141739200D02*
X178461190Y-141777295D01*
X178461190Y-141777295D02*
X178308809Y-141777295D01*
X178308809Y-141777295D02*
X178232618Y-141739200D01*
X178232618Y-141739200D02*
X178194523Y-141701104D01*
X178194523Y-141701104D02*
X178156428Y-141624914D01*
X178156428Y-141624914D02*
X178156428Y-141472533D01*
X178156428Y-141472533D02*
X178194523Y-141396342D01*
X178194523Y-141396342D02*
X178232618Y-141358247D01*
X178232618Y-141358247D02*
X178308809Y-141320152D01*
X171925868Y-115184998D02*
X171952805Y-115104185D01*
X171952805Y-115104185D02*
X172033618Y-115023373D01*
X172033618Y-115023373D02*
X172141367Y-114969498D01*
X172141367Y-114969498D02*
X172249117Y-114969498D01*
X172249117Y-114969498D02*
X172329929Y-114996436D01*
X172329929Y-114996436D02*
X172464616Y-115077248D01*
X172464616Y-115077248D02*
X172545428Y-115158060D01*
X172545428Y-115158060D02*
X172626241Y-115292747D01*
X172626241Y-115292747D02*
X172653178Y-115373560D01*
X172653178Y-115373560D02*
X172653178Y-115481309D01*
X172653178Y-115481309D02*
X172599303Y-115589059D01*
X172599303Y-115589059D02*
X172545428Y-115642934D01*
X172545428Y-115642934D02*
X172437679Y-115696808D01*
X172437679Y-115696808D02*
X172383804Y-115696808D01*
X172383804Y-115696808D02*
X172195242Y-115508247D01*
X172195242Y-115508247D02*
X172302992Y-115400497D01*
X172195242Y-115993120D02*
X171629557Y-115427434D01*
X171629557Y-115427434D02*
X171414057Y-115642934D01*
X171414057Y-115642934D02*
X171387120Y-115723746D01*
X171387120Y-115723746D02*
X171387120Y-115777621D01*
X171387120Y-115777621D02*
X171414057Y-115858433D01*
X171414057Y-115858433D02*
X171494870Y-115939245D01*
X171494870Y-115939245D02*
X171575682Y-115966182D01*
X171575682Y-115966182D02*
X171629557Y-115966182D01*
X171629557Y-115966182D02*
X171710369Y-115939245D01*
X171710369Y-115939245D02*
X171925868Y-115723746D01*
X171144683Y-116020057D02*
X171090809Y-116020057D01*
X171090809Y-116020057D02*
X171009996Y-116046995D01*
X171009996Y-116046995D02*
X170875309Y-116181682D01*
X170875309Y-116181682D02*
X170848372Y-116262494D01*
X170848372Y-116262494D02*
X170848372Y-116316369D01*
X170848372Y-116316369D02*
X170875309Y-116397181D01*
X170875309Y-116397181D02*
X170929184Y-116451056D01*
X170929184Y-116451056D02*
X171036934Y-116504930D01*
X171036934Y-116504930D02*
X171683431Y-116504930D01*
X171683431Y-116504930D02*
X171333245Y-116855117D01*
X170794497Y-117393865D02*
X171117746Y-117070616D01*
X170956121Y-117232240D02*
X170390436Y-116666555D01*
X170390436Y-116666555D02*
X170525123Y-116693492D01*
X170525123Y-116693492D02*
X170632873Y-116693492D01*
X170632873Y-116693492D02*
X170713685Y-116666555D01*
X199783431Y-115681435D02*
X199810368Y-115600623D01*
X199810368Y-115600623D02*
X199891180Y-115519811D01*
X199891180Y-115519811D02*
X199998930Y-115465936D01*
X199998930Y-115465936D02*
X200106680Y-115465936D01*
X200106680Y-115465936D02*
X200187492Y-115492873D01*
X200187492Y-115492873D02*
X200322179Y-115573685D01*
X200322179Y-115573685D02*
X200402991Y-115654498D01*
X200402991Y-115654498D02*
X200483803Y-115789185D01*
X200483803Y-115789185D02*
X200510741Y-115869997D01*
X200510741Y-115869997D02*
X200510741Y-115977746D01*
X200510741Y-115977746D02*
X200456866Y-116085496D01*
X200456866Y-116085496D02*
X200402991Y-116139371D01*
X200402991Y-116139371D02*
X200295241Y-116193246D01*
X200295241Y-116193246D02*
X200241367Y-116193246D01*
X200241367Y-116193246D02*
X200052805Y-116004684D01*
X200052805Y-116004684D02*
X200160554Y-115896934D01*
X200052805Y-116489557D02*
X199487119Y-115923872D01*
X199487119Y-115923872D02*
X199729556Y-116812806D01*
X199729556Y-116812806D02*
X199163871Y-116247120D01*
X199460182Y-117082180D02*
X198894497Y-116516494D01*
X198894497Y-116516494D02*
X198759810Y-116651181D01*
X198759810Y-116651181D02*
X198705935Y-116758931D01*
X198705935Y-116758931D02*
X198705935Y-116866680D01*
X198705935Y-116866680D02*
X198732872Y-116947493D01*
X198732872Y-116947493D02*
X198813685Y-117082180D01*
X198813685Y-117082180D02*
X198894497Y-117162992D01*
X198894497Y-117162992D02*
X199029184Y-117243804D01*
X199029184Y-117243804D02*
X199109996Y-117270741D01*
X199109996Y-117270741D02*
X199217746Y-117270741D01*
X199217746Y-117270741D02*
X199325495Y-117216867D01*
X199325495Y-117216867D02*
X199460182Y-117082180D01*
X154559200Y-133085475D02*
X154597295Y-133199761D01*
X154597295Y-133199761D02*
X154597295Y-133390237D01*
X154597295Y-133390237D02*
X154559200Y-133466428D01*
X154559200Y-133466428D02*
X154521104Y-133504523D01*
X154521104Y-133504523D02*
X154444914Y-133542618D01*
X154444914Y-133542618D02*
X154368723Y-133542618D01*
X154368723Y-133542618D02*
X154292533Y-133504523D01*
X154292533Y-133504523D02*
X154254438Y-133466428D01*
X154254438Y-133466428D02*
X154216342Y-133390237D01*
X154216342Y-133390237D02*
X154178247Y-133237856D01*
X154178247Y-133237856D02*
X154140152Y-133161666D01*
X154140152Y-133161666D02*
X154102057Y-133123571D01*
X154102057Y-133123571D02*
X154025866Y-133085475D01*
X154025866Y-133085475D02*
X153949676Y-133085475D01*
X153949676Y-133085475D02*
X153873485Y-133123571D01*
X153873485Y-133123571D02*
X153835390Y-133161666D01*
X153835390Y-133161666D02*
X153797295Y-133237856D01*
X153797295Y-133237856D02*
X153797295Y-133428333D01*
X153797295Y-133428333D02*
X153835390Y-133542618D01*
X153797295Y-133809285D02*
X154597295Y-133999761D01*
X154597295Y-133999761D02*
X154025866Y-134152142D01*
X154025866Y-134152142D02*
X154597295Y-134304523D01*
X154597295Y-134304523D02*
X153797295Y-134495000D01*
X154521104Y-135256905D02*
X154559200Y-135218809D01*
X154559200Y-135218809D02*
X154597295Y-135104524D01*
X154597295Y-135104524D02*
X154597295Y-135028333D01*
X154597295Y-135028333D02*
X154559200Y-134914047D01*
X154559200Y-134914047D02*
X154483009Y-134837857D01*
X154483009Y-134837857D02*
X154406819Y-134799762D01*
X154406819Y-134799762D02*
X154254438Y-134761666D01*
X154254438Y-134761666D02*
X154140152Y-134761666D01*
X154140152Y-134761666D02*
X153987771Y-134799762D01*
X153987771Y-134799762D02*
X153911580Y-134837857D01*
X153911580Y-134837857D02*
X153835390Y-134914047D01*
X153835390Y-134914047D02*
X153797295Y-135028333D01*
X153797295Y-135028333D02*
X153797295Y-135104524D01*
X153797295Y-135104524D02*
X153835390Y-135218809D01*
X153835390Y-135218809D02*
X153873485Y-135256905D01*
X154597295Y-135980714D02*
X154597295Y-135599762D01*
X154597295Y-135599762D02*
X153797295Y-135599762D01*
X154597295Y-136247381D02*
X153797295Y-136247381D01*
X154597295Y-136704524D02*
X154140152Y-136361666D01*
X153797295Y-136704524D02*
X154254438Y-136247381D01*
X192446428Y-141035390D02*
X192522618Y-140997295D01*
X192522618Y-140997295D02*
X192636904Y-140997295D01*
X192636904Y-140997295D02*
X192751190Y-141035390D01*
X192751190Y-141035390D02*
X192827380Y-141111580D01*
X192827380Y-141111580D02*
X192865475Y-141187771D01*
X192865475Y-141187771D02*
X192903571Y-141340152D01*
X192903571Y-141340152D02*
X192903571Y-141454438D01*
X192903571Y-141454438D02*
X192865475Y-141606819D01*
X192865475Y-141606819D02*
X192827380Y-141683009D01*
X192827380Y-141683009D02*
X192751190Y-141759200D01*
X192751190Y-141759200D02*
X192636904Y-141797295D01*
X192636904Y-141797295D02*
X192560713Y-141797295D01*
X192560713Y-141797295D02*
X192446428Y-141759200D01*
X192446428Y-141759200D02*
X192408332Y-141721104D01*
X192408332Y-141721104D02*
X192408332Y-141454438D01*
X192408332Y-141454438D02*
X192560713Y-141454438D01*
X192065475Y-141797295D02*
X192065475Y-140997295D01*
X192065475Y-140997295D02*
X191760713Y-140997295D01*
X191760713Y-140997295D02*
X191684523Y-141035390D01*
X191684523Y-141035390D02*
X191646428Y-141073485D01*
X191646428Y-141073485D02*
X191608332Y-141149676D01*
X191608332Y-141149676D02*
X191608332Y-141263961D01*
X191608332Y-141263961D02*
X191646428Y-141340152D01*
X191646428Y-141340152D02*
X191684523Y-141378247D01*
X191684523Y-141378247D02*
X191760713Y-141416342D01*
X191760713Y-141416342D02*
X192065475Y-141416342D01*
X190922618Y-141263961D02*
X190922618Y-141797295D01*
X191113094Y-140959200D02*
X191303571Y-141530628D01*
X191303571Y-141530628D02*
X190808332Y-141530628D01*
X202156494Y-141408372D02*
X202183431Y-141327560D01*
X202183431Y-141327560D02*
X202264243Y-141246748D01*
X202264243Y-141246748D02*
X202371993Y-141192873D01*
X202371993Y-141192873D02*
X202479742Y-141192873D01*
X202479742Y-141192873D02*
X202560555Y-141219810D01*
X202560555Y-141219810D02*
X202695242Y-141300623D01*
X202695242Y-141300623D02*
X202776054Y-141381435D01*
X202776054Y-141381435D02*
X202856866Y-141516122D01*
X202856866Y-141516122D02*
X202883803Y-141596934D01*
X202883803Y-141596934D02*
X202883803Y-141704684D01*
X202883803Y-141704684D02*
X202829929Y-141812433D01*
X202829929Y-141812433D02*
X202776054Y-141866308D01*
X202776054Y-141866308D02*
X202668304Y-141920183D01*
X202668304Y-141920183D02*
X202614429Y-141920183D01*
X202614429Y-141920183D02*
X202425868Y-141731621D01*
X202425868Y-141731621D02*
X202533617Y-141623871D01*
X202425868Y-142216494D02*
X201860182Y-141650809D01*
X201860182Y-141650809D02*
X201644683Y-141866308D01*
X201644683Y-141866308D02*
X201617746Y-141947120D01*
X201617746Y-141947120D02*
X201617746Y-142000995D01*
X201617746Y-142000995D02*
X201644683Y-142081807D01*
X201644683Y-142081807D02*
X201725495Y-142162619D01*
X201725495Y-142162619D02*
X201806307Y-142189557D01*
X201806307Y-142189557D02*
X201860182Y-142189557D01*
X201860182Y-142189557D02*
X201940994Y-142162619D01*
X201940994Y-142162619D02*
X202156494Y-141947120D01*
X201563871Y-143078491D02*
X201887120Y-142755242D01*
X201725495Y-142916867D02*
X201159810Y-142351181D01*
X201159810Y-142351181D02*
X201294497Y-142378119D01*
X201294497Y-142378119D02*
X201402246Y-142378119D01*
X201402246Y-142378119D02*
X201483059Y-142351181D01*
X187334523Y-140975390D02*
X187410713Y-140937295D01*
X187410713Y-140937295D02*
X187524999Y-140937295D01*
X187524999Y-140937295D02*
X187639285Y-140975390D01*
X187639285Y-140975390D02*
X187715475Y-141051580D01*
X187715475Y-141051580D02*
X187753570Y-141127771D01*
X187753570Y-141127771D02*
X187791666Y-141280152D01*
X187791666Y-141280152D02*
X187791666Y-141394438D01*
X187791666Y-141394438D02*
X187753570Y-141546819D01*
X187753570Y-141546819D02*
X187715475Y-141623009D01*
X187715475Y-141623009D02*
X187639285Y-141699200D01*
X187639285Y-141699200D02*
X187524999Y-141737295D01*
X187524999Y-141737295D02*
X187448808Y-141737295D01*
X187448808Y-141737295D02*
X187334523Y-141699200D01*
X187334523Y-141699200D02*
X187296427Y-141661104D01*
X187296427Y-141661104D02*
X187296427Y-141394438D01*
X187296427Y-141394438D02*
X187448808Y-141394438D01*
X186953570Y-141737295D02*
X186953570Y-140937295D01*
X186953570Y-140937295D02*
X186496427Y-141737295D01*
X186496427Y-141737295D02*
X186496427Y-140937295D01*
X186115475Y-141737295D02*
X186115475Y-140937295D01*
X186115475Y-140937295D02*
X185924999Y-140937295D01*
X185924999Y-140937295D02*
X185810713Y-140975390D01*
X185810713Y-140975390D02*
X185734523Y-141051580D01*
X185734523Y-141051580D02*
X185696428Y-141127771D01*
X185696428Y-141127771D02*
X185658332Y-141280152D01*
X185658332Y-141280152D02*
X185658332Y-141394438D01*
X185658332Y-141394438D02*
X185696428Y-141546819D01*
X185696428Y-141546819D02*
X185734523Y-141623009D01*
X185734523Y-141623009D02*
X185810713Y-141699200D01*
X185810713Y-141699200D02*
X185924999Y-141737295D01*
X185924999Y-141737295D02*
X186115475Y-141737295D01*
X171935868Y-141292998D02*
X171962805Y-141212185D01*
X171962805Y-141212185D02*
X172043618Y-141131373D01*
X172043618Y-141131373D02*
X172151367Y-141077498D01*
X172151367Y-141077498D02*
X172259117Y-141077498D01*
X172259117Y-141077498D02*
X172339929Y-141104436D01*
X172339929Y-141104436D02*
X172474616Y-141185248D01*
X172474616Y-141185248D02*
X172555428Y-141266060D01*
X172555428Y-141266060D02*
X172636241Y-141400747D01*
X172636241Y-141400747D02*
X172663178Y-141481560D01*
X172663178Y-141481560D02*
X172663178Y-141589309D01*
X172663178Y-141589309D02*
X172609303Y-141697059D01*
X172609303Y-141697059D02*
X172555428Y-141750934D01*
X172555428Y-141750934D02*
X172447679Y-141804808D01*
X172447679Y-141804808D02*
X172393804Y-141804808D01*
X172393804Y-141804808D02*
X172205242Y-141616247D01*
X172205242Y-141616247D02*
X172312992Y-141508497D01*
X172205242Y-142101120D02*
X171639557Y-141535434D01*
X171639557Y-141535434D02*
X171424057Y-141750934D01*
X171424057Y-141750934D02*
X171397120Y-141831746D01*
X171397120Y-141831746D02*
X171397120Y-141885621D01*
X171397120Y-141885621D02*
X171424057Y-141966433D01*
X171424057Y-141966433D02*
X171504870Y-142047245D01*
X171504870Y-142047245D02*
X171585682Y-142074182D01*
X171585682Y-142074182D02*
X171639557Y-142074182D01*
X171639557Y-142074182D02*
X171720369Y-142047245D01*
X171720369Y-142047245D02*
X171935868Y-141831746D01*
X171343245Y-142963117D02*
X171666494Y-142639868D01*
X171504870Y-142801492D02*
X170939184Y-142235807D01*
X170939184Y-142235807D02*
X171073871Y-142262744D01*
X171073871Y-142262744D02*
X171181621Y-142262744D01*
X171181621Y-142262744D02*
X171262433Y-142235807D01*
X170427373Y-142747618D02*
X170373499Y-142801492D01*
X170373499Y-142801492D02*
X170346561Y-142882305D01*
X170346561Y-142882305D02*
X170346561Y-142936179D01*
X170346561Y-142936179D02*
X170373499Y-143016992D01*
X170373499Y-143016992D02*
X170454311Y-143151679D01*
X170454311Y-143151679D02*
X170588998Y-143286366D01*
X170588998Y-143286366D02*
X170723685Y-143367178D01*
X170723685Y-143367178D02*
X170804497Y-143394115D01*
X170804497Y-143394115D02*
X170858372Y-143394115D01*
X170858372Y-143394115D02*
X170939184Y-143367178D01*
X170939184Y-143367178D02*
X170993059Y-143313303D01*
X170993059Y-143313303D02*
X171019996Y-143232491D01*
X171019996Y-143232491D02*
X171019996Y-143178616D01*
X171019996Y-143178616D02*
X170993059Y-143097804D01*
X170993059Y-143097804D02*
X170912247Y-142963117D01*
X170912247Y-142963117D02*
X170777560Y-142828430D01*
X170777560Y-142828430D02*
X170642873Y-142747618D01*
X170642873Y-142747618D02*
X170562060Y-142720680D01*
X170562060Y-142720680D02*
X170508186Y-142720680D01*
X170508186Y-142720680D02*
X170427373Y-142747618D01*
X174233431Y-141281435D02*
X174260368Y-141200623D01*
X174260368Y-141200623D02*
X174341180Y-141119811D01*
X174341180Y-141119811D02*
X174448930Y-141065936D01*
X174448930Y-141065936D02*
X174556680Y-141065936D01*
X174556680Y-141065936D02*
X174637492Y-141092873D01*
X174637492Y-141092873D02*
X174772179Y-141173685D01*
X174772179Y-141173685D02*
X174852991Y-141254498D01*
X174852991Y-141254498D02*
X174933803Y-141389185D01*
X174933803Y-141389185D02*
X174960741Y-141469997D01*
X174960741Y-141469997D02*
X174960741Y-141577746D01*
X174960741Y-141577746D02*
X174906866Y-141685496D01*
X174906866Y-141685496D02*
X174852991Y-141739371D01*
X174852991Y-141739371D02*
X174745241Y-141793246D01*
X174745241Y-141793246D02*
X174691367Y-141793246D01*
X174691367Y-141793246D02*
X174502805Y-141604684D01*
X174502805Y-141604684D02*
X174610554Y-141496934D01*
X174502805Y-142089557D02*
X173937119Y-141523872D01*
X173937119Y-141523872D02*
X174179556Y-142412806D01*
X174179556Y-142412806D02*
X173613871Y-141847120D01*
X173910182Y-142682180D02*
X173344497Y-142116494D01*
X173344497Y-142116494D02*
X173209810Y-142251181D01*
X173209810Y-142251181D02*
X173155935Y-142358931D01*
X173155935Y-142358931D02*
X173155935Y-142466680D01*
X173155935Y-142466680D02*
X173182872Y-142547493D01*
X173182872Y-142547493D02*
X173263685Y-142682180D01*
X173263685Y-142682180D02*
X173344497Y-142762992D01*
X173344497Y-142762992D02*
X173479184Y-142843804D01*
X173479184Y-142843804D02*
X173559996Y-142870741D01*
X173559996Y-142870741D02*
X173667746Y-142870741D01*
X173667746Y-142870741D02*
X173775495Y-142816867D01*
X173775495Y-142816867D02*
X173910182Y-142682180D01*
X156695868Y-141292998D02*
X156722805Y-141212185D01*
X156722805Y-141212185D02*
X156803618Y-141131373D01*
X156803618Y-141131373D02*
X156911367Y-141077498D01*
X156911367Y-141077498D02*
X157019117Y-141077498D01*
X157019117Y-141077498D02*
X157099929Y-141104436D01*
X157099929Y-141104436D02*
X157234616Y-141185248D01*
X157234616Y-141185248D02*
X157315428Y-141266060D01*
X157315428Y-141266060D02*
X157396241Y-141400747D01*
X157396241Y-141400747D02*
X157423178Y-141481560D01*
X157423178Y-141481560D02*
X157423178Y-141589309D01*
X157423178Y-141589309D02*
X157369303Y-141697059D01*
X157369303Y-141697059D02*
X157315428Y-141750934D01*
X157315428Y-141750934D02*
X157207679Y-141804808D01*
X157207679Y-141804808D02*
X157153804Y-141804808D01*
X157153804Y-141804808D02*
X156965242Y-141616247D01*
X156965242Y-141616247D02*
X157072992Y-141508497D01*
X156965242Y-142101120D02*
X156399557Y-141535434D01*
X156399557Y-141535434D02*
X156184057Y-141750934D01*
X156184057Y-141750934D02*
X156157120Y-141831746D01*
X156157120Y-141831746D02*
X156157120Y-141885621D01*
X156157120Y-141885621D02*
X156184057Y-141966433D01*
X156184057Y-141966433D02*
X156264870Y-142047245D01*
X156264870Y-142047245D02*
X156345682Y-142074182D01*
X156345682Y-142074182D02*
X156399557Y-142074182D01*
X156399557Y-142074182D02*
X156480369Y-142047245D01*
X156480369Y-142047245D02*
X156695868Y-141831746D01*
X156103245Y-142963117D02*
X156426494Y-142639868D01*
X156264870Y-142801492D02*
X155699184Y-142235807D01*
X155699184Y-142235807D02*
X155833871Y-142262744D01*
X155833871Y-142262744D02*
X155941621Y-142262744D01*
X155941621Y-142262744D02*
X156022433Y-142235807D01*
X155025749Y-142909242D02*
X155295123Y-142639868D01*
X155295123Y-142639868D02*
X155591434Y-142882305D01*
X155591434Y-142882305D02*
X155537560Y-142882305D01*
X155537560Y-142882305D02*
X155456747Y-142909242D01*
X155456747Y-142909242D02*
X155322060Y-143043929D01*
X155322060Y-143043929D02*
X155295123Y-143124741D01*
X155295123Y-143124741D02*
X155295123Y-143178616D01*
X155295123Y-143178616D02*
X155322060Y-143259428D01*
X155322060Y-143259428D02*
X155456747Y-143394115D01*
X155456747Y-143394115D02*
X155537560Y-143421053D01*
X155537560Y-143421053D02*
X155591434Y-143421053D01*
X155591434Y-143421053D02*
X155672247Y-143394115D01*
X155672247Y-143394115D02*
X155806934Y-143259428D01*
X155806934Y-143259428D02*
X155833871Y-143178616D01*
X155833871Y-143178616D02*
X155833871Y-143124741D01*
D11*
X125035000Y-116605000D02*
X127695000Y-116605000D01*
X125035000Y-129365000D02*
X127695000Y-129365000D01*
X126365000Y-114005000D02*
X127695000Y-114005000D01*
X127695000Y-114005000D02*
X127695000Y-115335000D01*
X127695000Y-129365000D02*
X127695000Y-116605000D01*
X120425000Y-72545000D02*
X120425000Y-98065000D01*
X120425000Y-98065000D02*
X122075000Y-98065000D01*
X124075000Y-98065000D02*
X125725000Y-98065000D01*
X125725000Y-72545000D02*
X120425000Y-72545000D01*
X125725000Y-98065000D02*
X125725000Y-72545000D01*
X122075000Y-98065000D02*
G75*
G02*
X124075000Y-98065000I1000000J0D01*
G01*
X154935000Y-125495000D02*
X154935000Y-118695000D01*
X154935000Y-127695000D02*
X154935000Y-128095000D01*
X154935000Y-130295000D02*
X154935000Y-130695000D01*
X154935000Y-139695000D02*
X154935000Y-132895000D01*
X157335000Y-118695000D02*
X157735000Y-118695000D01*
X157335000Y-139695000D02*
X157735000Y-139695000D01*
X159935000Y-118695000D02*
X160335000Y-118695000D01*
X159935000Y-139695000D02*
X160335000Y-139695000D01*
X162435000Y-118695000D02*
X162835000Y-118695000D01*
X162435000Y-139695000D02*
X162835000Y-139695000D01*
X164935000Y-118695000D02*
X165335000Y-118695000D01*
X164935000Y-139695000D02*
X165335000Y-139695000D01*
X167535000Y-118695000D02*
X167935000Y-118695000D01*
X167535000Y-139695000D02*
X167935000Y-139695000D01*
X170035000Y-118695000D02*
X170435000Y-118695000D01*
X170035000Y-139695000D02*
X170435000Y-139695000D01*
X172635000Y-118695000D02*
X173035000Y-118695000D01*
X172635000Y-139695000D02*
X173035000Y-139695000D01*
X175135000Y-118695000D02*
X175535000Y-118695000D01*
X175135000Y-139695000D02*
X175535000Y-139695000D01*
X177735000Y-118695000D02*
X178135000Y-118695000D01*
X177735000Y-139695000D02*
X178135000Y-139695000D01*
X180235000Y-118695000D02*
X180635000Y-118695000D01*
X180235000Y-139695000D02*
X180635000Y-139695000D01*
X182735000Y-118695000D02*
X183135000Y-118695000D01*
X182735000Y-139695000D02*
X183135000Y-139695000D01*
X185335000Y-118695000D02*
X185735000Y-118695000D01*
X185335000Y-139695000D02*
X185735000Y-139695000D01*
X187835000Y-118695000D02*
X188235000Y-118695000D01*
X187835000Y-139695000D02*
X188235000Y-139695000D01*
X190435000Y-118695000D02*
X190835000Y-118695000D01*
X190435000Y-139695000D02*
X190835000Y-139695000D01*
X192935000Y-118695000D02*
X193335000Y-118695000D01*
X192935000Y-139695000D02*
X193335000Y-139695000D01*
X195435000Y-118695000D02*
X195835000Y-118695000D01*
X195435000Y-139695000D02*
X195835000Y-139695000D01*
X198035000Y-118695000D02*
X198435000Y-118695000D01*
X198035000Y-139695000D02*
X198435000Y-139695000D01*
X200535000Y-118695000D02*
X200935000Y-118695000D01*
X200535000Y-139695000D02*
X200935000Y-139695000D01*
X203135000Y-118695000D02*
X203535000Y-118695000D01*
X203135000Y-139695000D02*
X203535000Y-139695000D01*
X203268000Y-136688000D02*
X203268000Y-139695000D01*
X205635000Y-118695000D02*
X205935000Y-118695000D01*
X205635000Y-139695000D02*
X205935000Y-139695000D01*
X205935000Y-118695000D02*
X205935000Y-139695000D01*
X205935000Y-136688000D02*
X203268000Y-136688000D01*
%LPC*%
D12*
X133445000Y-143685000D03*
D13*
X138445000Y-143685000D03*
X135945000Y-143685000D03*
X133445000Y-129185000D03*
X138445000Y-129185000D03*
D14*
X130345000Y-136185000D03*
X141545000Y-136185000D03*
D12*
X133445000Y-59035000D03*
D13*
X138445000Y-59035000D03*
X135945000Y-59035000D03*
X133445000Y-44535000D03*
X138445000Y-44535000D03*
D14*
X130345000Y-51535000D03*
X141545000Y-51535000D03*
D15*
X202465000Y-114195000D03*
X148175000Y-140205000D03*
X121465000Y-46695000D03*
D16*
X189325000Y-144262000D03*
D17*
X189325000Y-145195000D03*
D16*
X186785000Y-144262000D03*
D17*
X186785000Y-145195000D03*
D16*
X184245000Y-144262000D03*
D17*
X184245000Y-145195000D03*
D16*
X181705000Y-144262000D03*
D17*
X181705000Y-145195000D03*
D16*
X179165000Y-144262000D03*
D17*
X179165000Y-145195000D03*
D16*
X176625000Y-144262000D03*
D17*
X176625000Y-145195000D03*
D12*
X133445000Y-87251668D03*
D13*
X138445000Y-87251668D03*
X135945000Y-87251668D03*
X133445000Y-72751668D03*
X138445000Y-72751668D03*
D14*
X130345000Y-79751668D03*
X141545000Y-79751668D03*
D15*
X140965000Y-66205002D03*
X140965000Y-122015000D03*
D12*
X133445000Y-115468334D03*
D13*
X138445000Y-115468334D03*
X135945000Y-115468334D03*
X133445000Y-100968334D03*
X138445000Y-100968334D03*
D14*
X130345000Y-107968334D03*
X141545000Y-107968334D03*
D18*
X147415000Y-77075000D03*
D17*
X147415000Y-79615000D03*
X147415000Y-82155000D03*
X147415000Y-84695000D03*
X147415000Y-87235000D03*
X147415000Y-89775000D03*
X147415000Y-92315000D03*
X147415000Y-94855000D03*
X147415000Y-97395000D03*
X147415000Y-99935000D03*
X147415000Y-102475000D03*
X147415000Y-105015000D03*
X147415000Y-107555000D03*
X147415000Y-110095000D03*
X147415000Y-112635000D03*
X147415000Y-115175000D03*
X147415000Y-117715000D03*
X147415000Y-120255000D03*
X147415000Y-122795000D03*
X147415000Y-125335000D03*
X149955000Y-77075000D03*
X149955000Y-79615000D03*
X149955000Y-82155000D03*
X149955000Y-84695000D03*
X149955000Y-87235000D03*
X149955000Y-89775000D03*
X149955000Y-92315000D03*
X149955000Y-94855000D03*
X149955000Y-97395000D03*
X149955000Y-99935000D03*
X149955000Y-102475000D03*
X149955000Y-105015000D03*
X149955000Y-107555000D03*
X149955000Y-110095000D03*
X149955000Y-112635000D03*
X149955000Y-115175000D03*
X149955000Y-117715000D03*
X149955000Y-120255000D03*
X149955000Y-122795000D03*
X149955000Y-125335000D03*
D19*
X125393000Y-115335000D03*
D17*
X124460000Y-115335000D03*
D19*
X125393000Y-117875000D03*
D17*
X124460000Y-117875000D03*
D19*
X125393000Y-120415000D03*
D17*
X124460000Y-120415000D03*
D19*
X125393000Y-122955000D03*
D17*
X124460000Y-122955000D03*
D19*
X125393000Y-125495000D03*
D17*
X124460000Y-125495000D03*
D19*
X125393000Y-128035000D03*
D17*
X124460000Y-128035000D03*
D20*
X119265000Y-96735000D03*
D21*
X119265000Y-94195000D03*
X119265000Y-91655000D03*
X119265000Y-89115000D03*
X119265000Y-86575000D03*
X119265000Y-84035000D03*
X119265000Y-81495000D03*
X119265000Y-78955000D03*
X119265000Y-76415000D03*
X119265000Y-73875000D03*
X126885000Y-73875000D03*
X126885000Y-76415000D03*
X126885000Y-78955000D03*
X126885000Y-81495000D03*
X126885000Y-84035000D03*
X126885000Y-86575000D03*
X126885000Y-89115000D03*
X126885000Y-91655000D03*
X126885000Y-94195000D03*
X126885000Y-96735000D03*
D22*
X204435000Y-131920000D03*
D23*
X201405000Y-131620000D03*
X201405000Y-126770000D03*
D22*
X204435000Y-126470000D03*
D17*
X204565000Y-138085000D03*
D24*
X204565000Y-138985000D03*
D17*
X202025000Y-138085000D03*
D24*
X202025000Y-138985000D03*
D18*
X199485000Y-138085000D03*
D24*
X199485000Y-138985000D03*
D17*
X196945000Y-138085000D03*
D24*
X196945000Y-138985000D03*
D17*
X194405000Y-138085000D03*
D24*
X194405000Y-138985000D03*
D17*
X191865000Y-138085000D03*
D24*
X191865000Y-138985000D03*
D17*
X189325000Y-138085000D03*
D24*
X189325000Y-138985000D03*
D18*
X186785000Y-138085000D03*
D24*
X186785000Y-138985000D03*
D17*
X184245000Y-138085000D03*
D24*
X184245000Y-138985000D03*
D17*
X181705000Y-138085000D03*
D24*
X181705000Y-138985000D03*
D17*
X179165000Y-138085000D03*
D24*
X179165000Y-138985000D03*
D17*
X176625000Y-138085000D03*
D24*
X176625000Y-138985000D03*
D18*
X174085000Y-138085000D03*
D24*
X174085000Y-138985000D03*
D17*
X171545000Y-138085000D03*
D24*
X171545000Y-138985000D03*
D17*
X169005000Y-138085000D03*
D24*
X169005000Y-138985000D03*
D17*
X166465000Y-138085000D03*
D24*
X166465000Y-138985000D03*
D17*
X163925000Y-138085000D03*
D24*
X163925000Y-138985000D03*
D18*
X161385000Y-138085000D03*
D24*
X161385000Y-138985000D03*
D17*
X158845000Y-138085000D03*
D24*
X158845000Y-138985000D03*
D17*
X156305000Y-138085000D03*
D24*
X156305000Y-138985000D03*
D17*
X156305000Y-120305000D03*
D24*
X156305000Y-119405000D03*
D17*
X158845000Y-120305000D03*
D24*
X158845000Y-119405000D03*
D18*
X161385000Y-120305000D03*
D24*
X161385000Y-119405000D03*
D17*
X163925000Y-120305000D03*
D24*
X163925000Y-119405000D03*
D17*
X166465000Y-120305000D03*
D24*
X166465000Y-119405000D03*
D17*
X169005000Y-120305000D03*
D24*
X169005000Y-119405000D03*
D17*
X171545000Y-120305000D03*
D24*
X171545000Y-119405000D03*
D18*
X174085000Y-120305000D03*
D24*
X174085000Y-119405000D03*
D17*
X176625000Y-120305000D03*
D24*
X176625000Y-119405000D03*
D17*
X179165000Y-120305000D03*
D24*
X179165000Y-119405000D03*
D17*
X181705000Y-120305000D03*
D24*
X181705000Y-119405000D03*
D17*
X184245000Y-120305000D03*
D24*
X184245000Y-119405000D03*
D18*
X186785000Y-120305000D03*
D24*
X186785000Y-119405000D03*
D17*
X189325000Y-120305000D03*
D24*
X189325000Y-119405000D03*
D17*
X191865000Y-120305000D03*
D24*
X191865000Y-119405000D03*
D17*
X194405000Y-120305000D03*
D24*
X194405000Y-119405000D03*
D17*
X196945000Y-120305000D03*
D24*
X196945000Y-119405000D03*
D18*
X199485000Y-120305000D03*
D24*
X199485000Y-119405000D03*
D17*
X202025000Y-120305000D03*
D24*
X202025000Y-119405000D03*
D17*
X204565000Y-120305000D03*
D24*
X204565000Y-119405000D03*
D17*
X156535000Y-131735000D03*
D25*
X155635000Y-131735000D03*
D18*
X156535000Y-129195000D03*
D25*
X155635000Y-129195000D03*
D17*
X156535000Y-126655000D03*
D25*
X155635000Y-126655000D03*
%LPD*%
M02*
